<mxfile host="drawio-plugin" modified="2023-05-12T19:57:19.785Z" agent="5.0 (Windows NT 6.2; Win64; x64) AppleWebKit/537.36 (KHTML, like Gecko) Chrome/97.0.4692.45 Safari/537.36" etag="ZzslXKfbvqdbU-8igcZk" version="20.5.3" type="embed"><diagram name="Page-1" id="QXzb53Gytgvvv2Sk001Y"><mxGraphModel dx="1214" dy="816" grid="1" gridSize="10" guides="1" tooltips="1" connect="1" arrows="1" fold="1" page="1" pageScale="1" pageWidth="1100" pageHeight="1800" math="0" shadow="0"><root><mxCell id="0"/><mxCell id="1" parent="0"/><mxCell id="lGwnbj7zBoOg-LtK1CzN-1" value="contains" style="edgeStyle=orthogonalEdgeStyle;rounded=0;orthogonalLoop=1;jettySize=auto;html=1;exitX=0.5;exitY=1;exitDx=0;exitDy=0;startArrow=diamondThin;startFill=1;endArrow=none;endFill=0;" parent="1" source="lGwnbj7zBoOg-LtK1CzN-2" target="lGwnbj7zBoOg-LtK1CzN-5" edge="1"><mxGeometry relative="1" as="geometry"/></mxCell><mxCell id="lGwnbj7zBoOg-LtK1CzN-2" value="SystemFacade" style="swimlane;fontStyle=0;childLayout=stackLayout;horizontal=1;startSize=26;fillColor=none;horizontalStack=0;resizeParent=1;resizeParentMax=0;resizeLast=0;collapsible=1;marginBottom=0;whiteSpace=wrap;html=1;" parent="1" vertex="1"><mxGeometry x="420" y="20" width="140" height="52" as="geometry"/></mxCell><mxCell id="lGwnbj7zBoOg-LtK1CzN-3" value="contains" style="edgeStyle=orthogonalEdgeStyle;rounded=0;orthogonalLoop=1;jettySize=auto;html=1;exitX=0.5;exitY=0;exitDx=0;exitDy=0;entryX=0.25;entryY=1;entryDx=0;entryDy=0;endArrow=diamondThin;endFill=0;" parent="1" source="lGwnbj7zBoOg-LtK1CzN-4" target="lGwnbj7zBoOg-LtK1CzN-5" edge="1"><mxGeometry relative="1" as="geometry"><Array as="points"><mxPoint x="266" y="180"/><mxPoint x="455" y="180"/></Array></mxGeometry></mxCell><mxCell id="lGwnbj7zBoOg-LtK1CzN-4" value="EmployeeService" style="swimlane;fontStyle=0;childLayout=stackLayout;horizontal=1;startSize=26;fillColor=none;horizontalStack=0;resizeParent=1;resizeParentMax=0;resizeLast=0;collapsible=1;marginBottom=0;whiteSpace=wrap;html=1;" parent="1" vertex="1"><mxGeometry x="179" y="190" width="140" height="52" as="geometry"/></mxCell><mxCell id="lGwnbj7zBoOg-LtK1CzN-5" value="HRService" style="swimlane;fontStyle=0;childLayout=stackLayout;horizontal=1;startSize=26;fillColor=none;horizontalStack=0;resizeParent=1;resizeParentMax=0;resizeLast=0;collapsible=1;marginBottom=0;whiteSpace=wrap;html=1;" parent="1" vertex="1"><mxGeometry x="420" y="110" width="140" height="52" as="geometry"/></mxCell><mxCell id="lGwnbj7zBoOg-LtK1CzN-6" value="contains" style="edgeStyle=orthogonalEdgeStyle;rounded=0;orthogonalLoop=1;jettySize=auto;html=1;exitX=0.5;exitY=0;exitDx=0;exitDy=0;entryX=0.75;entryY=1;entryDx=0;entryDy=0;endArrow=diamondThin;endFill=0;" parent="1" source="lGwnbj7zBoOg-LtK1CzN-7" target="lGwnbj7zBoOg-LtK1CzN-5" edge="1"><mxGeometry relative="1" as="geometry"><Array as="points"><mxPoint x="706" y="180"/><mxPoint x="525" y="180"/></Array></mxGeometry></mxCell><mxCell id="lGwnbj7zBoOg-LtK1CzN-7" value="BranchService" style="swimlane;fontStyle=0;childLayout=stackLayout;horizontal=1;startSize=26;fillColor=none;horizontalStack=0;resizeParent=1;resizeParentMax=0;resizeLast=0;collapsible=1;marginBottom=0;whiteSpace=wrap;html=1;" parent="1" vertex="1"><mxGeometry x="636" y="200" width="140" height="52" as="geometry"/></mxCell><mxCell id="lGwnbj7zBoOg-LtK1CzN-8" value="contains" style="edgeStyle=orthogonalEdgeStyle;rounded=0;orthogonalLoop=1;jettySize=auto;html=1;exitX=0.5;exitY=0;exitDx=0;exitDy=0;entryX=0.5;entryY=1;entryDx=0;entryDy=0;endArrow=diamondThin;endFill=0;" parent="1" source="lGwnbj7zBoOg-LtK1CzN-9" target="lGwnbj7zBoOg-LtK1CzN-4" edge="1"><mxGeometry x="0.1" y="-3" relative="1" as="geometry"><mxPoint as="offset"/></mxGeometry></mxCell><mxCell id="lGwnbj7zBoOg-LtK1CzN-9" value="EmployeeController" style="swimlane;fontStyle=0;childLayout=stackLayout;horizontal=1;startSize=26;fillColor=none;horizontalStack=0;resizeParent=1;resizeParentMax=0;resizeLast=0;collapsible=1;marginBottom=0;whiteSpace=wrap;html=1;" parent="1" vertex="1"><mxGeometry x="142" y="272" width="194" height="78" as="geometry"/></mxCell><mxCell id="lGwnbj7zBoOg-LtK1CzN-10" value="&lt;font style=&quot;font-size: 12px;&quot;&gt;-&amp;nbsp;MIN_PASS_LENGTH: int = 6&lt;/font&gt;" style="text;strokeColor=none;fillColor=none;align=left;verticalAlign=top;spacingLeft=4;spacingRight=4;overflow=hidden;rotatable=0;points=[[0,0.5],[1,0.5]];portConstraint=eastwest;whiteSpace=wrap;html=1;fontSize=12;" parent="lGwnbj7zBoOg-LtK1CzN-9" vertex="1"><mxGeometry y="26" width="194" height="26" as="geometry"/></mxCell><mxCell id="lGwnbj7zBoOg-LtK1CzN-11" value="&lt;font style=&quot;font-size: 12px;&quot;&gt;-&amp;nbsp;MAX_PASS_LENGTH: int = 20&lt;/font&gt;" style="text;strokeColor=none;fillColor=none;align=left;verticalAlign=top;spacingLeft=4;spacingRight=4;overflow=hidden;rotatable=0;points=[[0,0.5],[1,0.5]];portConstraint=eastwest;whiteSpace=wrap;html=1;fontSize=12;" parent="lGwnbj7zBoOg-LtK1CzN-9" vertex="1"><mxGeometry y="52" width="194" height="26" as="geometry"/></mxCell><mxCell id="lGwnbj7zBoOg-LtK1CzN-12" value="contains" style="edgeStyle=orthogonalEdgeStyle;rounded=0;orthogonalLoop=1;jettySize=auto;html=1;exitX=0.5;exitY=0;exitDx=0;exitDy=0;entryX=0.5;entryY=1;entryDx=0;entryDy=0;endArrow=diamondThin;endFill=0;" parent="1" source="lGwnbj7zBoOg-LtK1CzN-13" target="lGwnbj7zBoOg-LtK1CzN-7" edge="1"><mxGeometry relative="1" as="geometry"/></mxCell><mxCell id="lGwnbj7zBoOg-LtK1CzN-13" value="BranchController" style="swimlane;fontStyle=0;childLayout=stackLayout;horizontal=1;startSize=26;fillColor=none;horizontalStack=0;resizeParent=1;resizeParentMax=0;resizeLast=0;collapsible=1;marginBottom=0;whiteSpace=wrap;html=1;" parent="1" vertex="1"><mxGeometry x="636" y="288" width="140" height="52" as="geometry"/></mxCell><mxCell id="lGwnbj7zBoOg-LtK1CzN-14" value="contains" style="edgeStyle=orthogonalEdgeStyle;rounded=0;orthogonalLoop=1;jettySize=auto;html=1;entryX=0.5;entryY=1;entryDx=0;entryDy=0;endArrow=diamondThin;endFill=0;" parent="1" source="lGwnbj7zBoOg-LtK1CzN-17" target="lGwnbj7zBoOg-LtK1CzN-21" edge="1"><mxGeometry relative="1" as="geometry"/></mxCell><mxCell id="lGwnbj7zBoOg-LtK1CzN-15" value="contains" style="edgeStyle=orthogonalEdgeStyle;rounded=0;orthogonalLoop=1;jettySize=auto;html=1;exitX=1;exitY=0.5;exitDx=0;exitDy=0;entryX=0;entryY=0.5;entryDx=0;entryDy=0;endArrow=diamondThin;endFill=1;" parent="1" source="lGwnbj7zBoOg-LtK1CzN-17" target="lGwnbj7zBoOg-LtK1CzN-13" edge="1"><mxGeometry relative="1" as="geometry"/></mxCell><mxCell id="lGwnbj7zBoOg-LtK1CzN-16" value="contains" style="edgeStyle=orthogonalEdgeStyle;rounded=0;orthogonalLoop=1;jettySize=auto;html=1;exitX=0;exitY=0.5;exitDx=0;exitDy=0;entryX=1;entryY=0.5;entryDx=0;entryDy=0;endArrow=diamondThin;endFill=1;" parent="1" source="lGwnbj7zBoOg-LtK1CzN-17" target="lGwnbj7zBoOg-LtK1CzN-9" edge="1"><mxGeometry relative="1" as="geometry"/></mxCell><mxCell id="lGwnbj7zBoOg-LtK1CzN-17" value="ShiftController" style="swimlane;fontStyle=0;childLayout=stackLayout;horizontal=1;startSize=26;fillColor=none;horizontalStack=0;resizeParent=1;resizeParentMax=0;resizeLast=0;collapsible=1;marginBottom=0;whiteSpace=wrap;html=1;" parent="1" vertex="1"><mxGeometry x="420" y="287" width="140" height="52" as="geometry"/></mxCell><mxCell id="lGwnbj7zBoOg-LtK1CzN-18" value="id: 30" style="text;strokeColor=none;fillColor=none;align=left;verticalAlign=top;spacingLeft=4;spacingRight=4;overflow=hidden;rotatable=0;points=[[0,0.5],[1,0.5]];portConstraint=eastwest;whiteSpace=wrap;html=1;" parent="lGwnbj7zBoOg-LtK1CzN-17" vertex="1"><mxGeometry y="26" width="140" height="26" as="geometry"/></mxCell><mxCell id="lGwnbj7zBoOg-LtK1CzN-19" value="הערה: להקלה על מראה התרשים מופעים של עובדים, ענפים ומשמרות מקושרים לקונטרולרים שלהם" style="text;html=1;strokeColor=none;fillColor=none;align=right;verticalAlign=middle;whiteSpace=wrap;rounded=0;" parent="1" vertex="1"><mxGeometry x="709.5" y="90" width="254" height="30" as="geometry"/></mxCell><mxCell id="lGwnbj7zBoOg-LtK1CzN-20" value="contains" style="edgeStyle=orthogonalEdgeStyle;rounded=0;orthogonalLoop=1;jettySize=auto;html=1;exitX=0.5;exitY=0;exitDx=0;exitDy=0;entryX=0.5;entryY=1;entryDx=0;entryDy=0;endArrow=diamondThin;endFill=0;" parent="1" source="lGwnbj7zBoOg-LtK1CzN-21" target="lGwnbj7zBoOg-LtK1CzN-5" edge="1"><mxGeometry relative="1" as="geometry"/></mxCell><mxCell id="lGwnbj7zBoOg-LtK1CzN-21" value="ShiftService" style="swimlane;fontStyle=0;childLayout=stackLayout;horizontal=1;startSize=26;fillColor=none;horizontalStack=0;resizeParent=1;resizeParentMax=0;resizeLast=0;collapsible=1;marginBottom=0;whiteSpace=wrap;html=1;" parent="1" vertex="1"><mxGeometry x="420" y="200" width="140" height="52" as="geometry"/></mxCell><mxCell id="lGwnbj7zBoOg-LtK1CzN-22" style="edgeStyle=orthogonalEdgeStyle;rounded=0;orthogonalLoop=1;jettySize=auto;html=1;exitX=1;exitY=0.5;exitDx=0;exitDy=0;entryX=0.5;entryY=1;entryDx=0;entryDy=0;endArrow=diamondThin;endFill=0;" parent="1" source="lGwnbj7zBoOg-LtK1CzN-25" target="lGwnbj7zBoOg-LtK1CzN-9" edge="1"><mxGeometry relative="1" as="geometry"><Array as="points"><mxPoint x="239" y="367"/></Array></mxGeometry></mxCell><mxCell id="lGwnbj7zBoOg-LtK1CzN-23" style="edgeStyle=orthogonalEdgeStyle;rounded=0;orthogonalLoop=1;jettySize=auto;html=1;exitX=1;exitY=0.5;exitDx=0;exitDy=0;entryX=0.579;entryY=1.013;entryDx=0;entryDy=0;entryPerimeter=0;endArrow=diamondThin;endFill=0;" parent="1" source="lGwnbj7zBoOg-LtK1CzN-25" target="lGwnbj7zBoOg-LtK1CzN-18" edge="1"><mxGeometry relative="1" as="geometry"/></mxCell><mxCell id="lGwnbj7zBoOg-LtK1CzN-24" style="edgeStyle=orthogonalEdgeStyle;rounded=0;orthogonalLoop=1;jettySize=auto;html=1;exitX=1;exitY=0.5;exitDx=0;exitDy=0;endArrow=diamondThin;endFill=0;" parent="1" source="lGwnbj7zBoOg-LtK1CzN-25" edge="1"><mxGeometry relative="1" as="geometry"><mxPoint x="712" y="340" as="targetPoint"/></mxGeometry></mxCell><mxCell id="lGwnbj7zBoOg-LtK1CzN-25" value="A" style="ellipse;whiteSpace=wrap;html=1;aspect=fixed;fontSize=16;" parent="1" vertex="1"><mxGeometry x="102" y="350" width="34" height="34" as="geometry"/></mxCell><mxCell id="lGwnbj7zBoOg-LtK1CzN-26" value="Shift" style="swimlane;fontStyle=0;childLayout=stackLayout;horizontal=1;startSize=26;fillColor=none;horizontalStack=0;resizeParent=1;resizeParentMax=0;resizeLast=0;collapsible=1;marginBottom=0;whiteSpace=wrap;html=1;" parent="1" vertex="1"><mxGeometry x="154" y="461" width="110" height="78" as="geometry"/></mxCell><mxCell id="lGwnbj7zBoOg-LtK1CzN-27" value="id: 151" style="text;strokeColor=none;fillColor=none;align=left;verticalAlign=top;spacingLeft=4;spacingRight=4;overflow=hidden;rotatable=0;points=[[0,0.5],[1,0.5]];portConstraint=eastwest;whiteSpace=wrap;html=1;" parent="lGwnbj7zBoOg-LtK1CzN-26" vertex="1"><mxGeometry y="26" width="110" height="26" as="geometry"/></mxCell><mxCell id="lGwnbj7zBoOg-LtK1CzN-28" value="date: 01/01/2023" style="text;strokeColor=none;fillColor=none;align=left;verticalAlign=top;spacingLeft=4;spacingRight=4;overflow=hidden;rotatable=0;points=[[0,0.5],[1,0.5]];portConstraint=eastwest;whiteSpace=wrap;html=1;" parent="lGwnbj7zBoOg-LtK1CzN-26" vertex="1"><mxGeometry y="52" width="110" height="26" as="geometry"/></mxCell><mxCell id="lGwnbj7zBoOg-LtK1CzN-29" value="BranchShift" style="swimlane;fontStyle=0;childLayout=stackLayout;horizontal=1;startSize=26;fillColor=none;horizontalStack=0;resizeParent=1;resizeParentMax=0;resizeLast=0;collapsible=1;marginBottom=0;whiteSpace=wrap;html=1;" parent="1" vertex="1"><mxGeometry x="260" y="590" width="110" height="78" as="geometry"/></mxCell><mxCell id="lGwnbj7zBoOg-LtK1CzN-30" value="branch: Kfar Saba" style="text;strokeColor=none;fillColor=none;align=left;verticalAlign=top;spacingLeft=4;spacingRight=4;overflow=hidden;rotatable=0;points=[[0,0.5],[1,0.5]];portConstraint=eastwest;whiteSpace=wrap;html=1;" parent="lGwnbj7zBoOg-LtK1CzN-29" vertex="1"><mxGeometry y="26" width="110" height="26" as="geometry"/></mxCell><mxCell id="lGwnbj7zBoOg-LtK1CzN-31" value="typeBS: M" style="text;strokeColor=none;fillColor=none;align=left;verticalAlign=top;spacingLeft=4;spacingRight=4;overflow=hidden;rotatable=0;points=[[0,0.5],[1,0.5]];portConstraint=eastwest;whiteSpace=wrap;html=1;" parent="lGwnbj7zBoOg-LtK1CzN-29" vertex="1"><mxGeometry y="52" width="110" height="26" as="geometry"/></mxCell><mxCell id="lGwnbj7zBoOg-LtK1CzN-32" value="has" style="edgeStyle=orthogonalEdgeStyle;rounded=0;orthogonalLoop=1;jettySize=auto;html=1;exitX=0.75;exitY=0;exitDx=0;exitDy=0;entryX=0.385;entryY=1.013;entryDx=0;entryDy=0;entryPerimeter=0;startArrow=classic;startFill=1;endArrow=none;endFill=0;" parent="1" source="lGwnbj7zBoOg-LtK1CzN-33" target="lGwnbj7zBoOg-LtK1CzN-31" edge="1"><mxGeometry relative="1" as="geometry"/></mxCell><mxCell id="lGwnbj7zBoOg-LtK1CzN-33" value="Employee" style="swimlane;fontStyle=0;childLayout=stackLayout;horizontal=1;startSize=26;fillColor=none;horizontalStack=0;resizeParent=1;resizeParentMax=0;resizeLast=0;collapsible=1;marginBottom=0;whiteSpace=wrap;html=1;" parent="1" vertex="1"><mxGeometry x="102" y="740" width="190" height="364" as="geometry"/></mxCell><mxCell id="lGwnbj7zBoOg-LtK1CzN-34" value="employeeId: 315211958" style="text;strokeColor=none;fillColor=none;align=left;verticalAlign=top;spacingLeft=4;spacingRight=4;overflow=hidden;rotatable=0;points=[[0,0.5],[1,0.5]];portConstraint=eastwest;whiteSpace=wrap;html=1;" parent="lGwnbj7zBoOg-LtK1CzN-33" vertex="1"><mxGeometry y="26" width="190" height="26" as="geometry"/></mxCell><mxCell id="lGwnbj7zBoOg-LtK1CzN-35" value="firstName: Rotem" style="text;strokeColor=none;fillColor=none;align=left;verticalAlign=top;spacingLeft=4;spacingRight=4;overflow=hidden;rotatable=0;points=[[0,0.5],[1,0.5]];portConstraint=eastwest;whiteSpace=wrap;html=1;" parent="lGwnbj7zBoOg-LtK1CzN-33" vertex="1"><mxGeometry y="52" width="190" height="26" as="geometry"/></mxCell><mxCell id="lGwnbj7zBoOg-LtK1CzN-36" value="lastName: Sela" style="text;strokeColor=none;fillColor=none;align=left;verticalAlign=top;spacingLeft=4;spacingRight=4;overflow=hidden;rotatable=0;points=[[0,0.5],[1,0.5]];portConstraint=eastwest;whiteSpace=wrap;html=1;" parent="lGwnbj7zBoOg-LtK1CzN-33" vertex="1"><mxGeometry y="78" width="190" height="26" as="geometry"/></mxCell><mxCell id="lGwnbj7zBoOg-LtK1CzN-37" value="password: Uh463784" style="text;strokeColor=none;fillColor=none;align=left;verticalAlign=top;spacingLeft=4;spacingRight=4;overflow=hidden;rotatable=0;points=[[0,0.5],[1,0.5]];portConstraint=eastwest;whiteSpace=wrap;html=1;" parent="lGwnbj7zBoOg-LtK1CzN-33" vertex="1"><mxGeometry y="104" width="190" height="26" as="geometry"/></mxCell><mxCell id="lGwnbj7zBoOg-LtK1CzN-38" value="accountNumber: 7981249" style="text;strokeColor=none;fillColor=none;align=left;verticalAlign=top;spacingLeft=4;spacingRight=4;overflow=hidden;rotatable=0;points=[[0,0.5],[1,0.5]];portConstraint=eastwest;whiteSpace=wrap;html=1;" parent="lGwnbj7zBoOg-LtK1CzN-33" vertex="1"><mxGeometry y="130" width="190" height="26" as="geometry"/></mxCell><mxCell id="lGwnbj7zBoOg-LtK1CzN-39" value="branchBankNumber: 40" style="text;strokeColor=none;fillColor=none;align=left;verticalAlign=top;spacingLeft=4;spacingRight=4;overflow=hidden;rotatable=0;points=[[0,0.5],[1,0.5]];portConstraint=eastwest;whiteSpace=wrap;html=1;" parent="lGwnbj7zBoOg-LtK1CzN-33" vertex="1"><mxGeometry y="156" width="190" height="26" as="geometry"/></mxCell><mxCell id="lGwnbj7zBoOg-LtK1CzN-40" value="salary: 40" style="text;strokeColor=none;fillColor=none;align=left;verticalAlign=top;spacingLeft=4;spacingRight=4;overflow=hidden;rotatable=0;points=[[0,0.5],[1,0.5]];portConstraint=eastwest;whiteSpace=wrap;html=1;" parent="lGwnbj7zBoOg-LtK1CzN-33" vertex="1"><mxGeometry y="182" width="190" height="26" as="geometry"/></mxCell><mxCell id="lGwnbj7zBoOg-LtK1CzN-41" value="termsOfEmployment: &quot;...&quot;" style="text;strokeColor=none;fillColor=none;align=left;verticalAlign=top;spacingLeft=4;spacingRight=4;overflow=hidden;rotatable=0;points=[[0,0.5],[1,0.5]];portConstraint=eastwest;whiteSpace=wrap;html=1;" parent="lGwnbj7zBoOg-LtK1CzN-33" vertex="1"><mxGeometry y="208" width="190" height="26" as="geometry"/></mxCell><mxCell id="lGwnbj7zBoOg-LtK1CzN-42" value="statusOfEmployee: married, mom" style="text;strokeColor=none;fillColor=none;align=left;verticalAlign=top;spacingLeft=4;spacingRight=4;overflow=hidden;rotatable=0;points=[[0,0.5],[1,0.5]];portConstraint=eastwest;whiteSpace=wrap;html=1;" parent="lGwnbj7zBoOg-LtK1CzN-33" vertex="1"><mxGeometry y="234" width="190" height="26" as="geometry"/></mxCell><mxCell id="lGwnbj7zBoOg-LtK1CzN-43" value="phoneNumber: 0501234445" style="text;strokeColor=none;fillColor=none;align=left;verticalAlign=top;spacingLeft=4;spacingRight=4;overflow=hidden;rotatable=0;points=[[0,0.5],[1,0.5]];portConstraint=eastwest;whiteSpace=wrap;html=1;" parent="lGwnbj7zBoOg-LtK1CzN-33" vertex="1"><mxGeometry y="260" width="190" height="26" as="geometry"/></mxCell><mxCell id="lGwnbj7zBoOg-LtK1CzN-44" value="RoleType: BRANCHEMPLOYEE" style="text;strokeColor=none;fillColor=none;align=left;verticalAlign=top;spacingLeft=4;spacingRight=4;overflow=hidden;rotatable=0;points=[[0,0.5],[1,0.5]];portConstraint=eastwest;whiteSpace=wrap;html=1;" parent="lGwnbj7zBoOg-LtK1CzN-33" vertex="1"><mxGeometry y="286" width="190" height="26" as="geometry"/></mxCell><mxCell id="lGwnbj7zBoOg-LtK1CzN-45" value="hireDate: 06/06/2022" style="text;strokeColor=none;fillColor=none;align=left;verticalAlign=top;spacingLeft=4;spacingRight=4;overflow=hidden;rotatable=0;points=[[0,0.5],[1,0.5]];portConstraint=eastwest;whiteSpace=wrap;html=1;" parent="lGwnbj7zBoOg-LtK1CzN-33" vertex="1"><mxGeometry y="312" width="190" height="26" as="geometry"/></mxCell><mxCell id="lGwnbj7zBoOg-LtK1CzN-46" value="isLogged: false" style="text;strokeColor=none;fillColor=none;align=left;verticalAlign=top;spacingLeft=4;spacingRight=4;overflow=hidden;rotatable=0;points=[[0,0.5],[1,0.5]];portConstraint=eastwest;whiteSpace=wrap;html=1;" parent="lGwnbj7zBoOg-LtK1CzN-33" vertex="1"><mxGeometry y="338" width="190" height="26" as="geometry"/></mxCell><mxCell id="lGwnbj7zBoOg-LtK1CzN-222" value="has" style="edgeStyle=orthogonalEdgeStyle;rounded=0;orthogonalLoop=1;jettySize=auto;html=1;exitX=0.25;exitY=0;exitDx=0;exitDy=0;entryX=0.666;entryY=0.991;entryDx=0;entryDy=0;entryPerimeter=0;startArrow=classic;startFill=1;endArrow=none;endFill=0;" parent="1" source="lGwnbj7zBoOg-LtK1CzN-47" target="lGwnbj7zBoOg-LtK1CzN-31" edge="1"><mxGeometry relative="1" as="geometry"/></mxCell><mxCell id="lGwnbj7zBoOg-LtK1CzN-47" value="Employee" style="swimlane;fontStyle=0;childLayout=stackLayout;horizontal=1;startSize=26;fillColor=none;horizontalStack=0;resizeParent=1;resizeParentMax=0;resizeLast=0;collapsible=1;marginBottom=0;whiteSpace=wrap;html=1;" parent="1" vertex="1"><mxGeometry x="357" y="740" width="190" height="364" as="geometry"/></mxCell><mxCell id="lGwnbj7zBoOg-LtK1CzN-48" value="employee: 205312109" style="text;strokeColor=none;fillColor=none;align=left;verticalAlign=top;spacingLeft=4;spacingRight=4;overflow=hidden;rotatable=0;points=[[0,0.5],[1,0.5]];portConstraint=eastwest;whiteSpace=wrap;html=1;" parent="lGwnbj7zBoOg-LtK1CzN-47" vertex="1"><mxGeometry y="26" width="190" height="26" as="geometry"/></mxCell><mxCell id="lGwnbj7zBoOg-LtK1CzN-49" value="firstName: Assi" style="text;strokeColor=none;fillColor=none;align=left;verticalAlign=top;spacingLeft=4;spacingRight=4;overflow=hidden;rotatable=0;points=[[0,0.5],[1,0.5]];portConstraint=eastwest;whiteSpace=wrap;html=1;" parent="lGwnbj7zBoOg-LtK1CzN-47" vertex="1"><mxGeometry y="52" width="190" height="26" as="geometry"/></mxCell><mxCell id="lGwnbj7zBoOg-LtK1CzN-50" value="lastName: Azar" style="text;strokeColor=none;fillColor=none;align=left;verticalAlign=top;spacingLeft=4;spacingRight=4;overflow=hidden;rotatable=0;points=[[0,0.5],[1,0.5]];portConstraint=eastwest;whiteSpace=wrap;html=1;" parent="lGwnbj7zBoOg-LtK1CzN-47" vertex="1"><mxGeometry y="78" width="190" height="26" as="geometry"/></mxCell><mxCell id="lGwnbj7zBoOg-LtK1CzN-51" value="password: Do364758" style="text;strokeColor=none;fillColor=none;align=left;verticalAlign=top;spacingLeft=4;spacingRight=4;overflow=hidden;rotatable=0;points=[[0,0.5],[1,0.5]];portConstraint=eastwest;whiteSpace=wrap;html=1;" parent="lGwnbj7zBoOg-LtK1CzN-47" vertex="1"><mxGeometry y="104" width="190" height="26" as="geometry"/></mxCell><mxCell id="lGwnbj7zBoOg-LtK1CzN-52" value="accountNumber: 5010159" style="text;strokeColor=none;fillColor=none;align=left;verticalAlign=top;spacingLeft=4;spacingRight=4;overflow=hidden;rotatable=0;points=[[0,0.5],[1,0.5]];portConstraint=eastwest;whiteSpace=wrap;html=1;" parent="lGwnbj7zBoOg-LtK1CzN-47" vertex="1"><mxGeometry y="130" width="190" height="26" as="geometry"/></mxCell><mxCell id="lGwnbj7zBoOg-LtK1CzN-53" value="branchBankNumber: 32" style="text;strokeColor=none;fillColor=none;align=left;verticalAlign=top;spacingLeft=4;spacingRight=4;overflow=hidden;rotatable=0;points=[[0,0.5],[1,0.5]];portConstraint=eastwest;whiteSpace=wrap;html=1;" parent="lGwnbj7zBoOg-LtK1CzN-47" vertex="1"><mxGeometry y="156" width="190" height="26" as="geometry"/></mxCell><mxCell id="lGwnbj7zBoOg-LtK1CzN-54" value="salary: 40" style="text;strokeColor=none;fillColor=none;align=left;verticalAlign=top;spacingLeft=4;spacingRight=4;overflow=hidden;rotatable=0;points=[[0,0.5],[1,0.5]];portConstraint=eastwest;whiteSpace=wrap;html=1;" parent="lGwnbj7zBoOg-LtK1CzN-47" vertex="1"><mxGeometry y="182" width="190" height="26" as="geometry"/></mxCell><mxCell id="lGwnbj7zBoOg-LtK1CzN-55" value="termsOfEmployment: &quot;...&quot;" style="text;strokeColor=none;fillColor=none;align=left;verticalAlign=top;spacingLeft=4;spacingRight=4;overflow=hidden;rotatable=0;points=[[0,0.5],[1,0.5]];portConstraint=eastwest;whiteSpace=wrap;html=1;" parent="lGwnbj7zBoOg-LtK1CzN-47" vertex="1"><mxGeometry y="208" width="190" height="26" as="geometry"/></mxCell><mxCell id="lGwnbj7zBoOg-LtK1CzN-56" value="statusOfEmployee: married, mom" style="text;strokeColor=none;fillColor=none;align=left;verticalAlign=top;spacingLeft=4;spacingRight=4;overflow=hidden;rotatable=0;points=[[0,0.5],[1,0.5]];portConstraint=eastwest;whiteSpace=wrap;html=1;" parent="lGwnbj7zBoOg-LtK1CzN-47" vertex="1"><mxGeometry y="234" width="190" height="26" as="geometry"/></mxCell><mxCell id="lGwnbj7zBoOg-LtK1CzN-57" value="phoneNumber:&amp;nbsp;0531122334" style="text;strokeColor=none;fillColor=none;align=left;verticalAlign=top;spacingLeft=4;spacingRight=4;overflow=hidden;rotatable=0;points=[[0,0.5],[1,0.5]];portConstraint=eastwest;whiteSpace=wrap;html=1;" parent="lGwnbj7zBoOg-LtK1CzN-47" vertex="1"><mxGeometry y="260" width="190" height="26" as="geometry"/></mxCell><mxCell id="lGwnbj7zBoOg-LtK1CzN-58" value="RoleType: BRANCHEMPLOYEE" style="text;strokeColor=none;fillColor=none;align=left;verticalAlign=top;spacingLeft=4;spacingRight=4;overflow=hidden;rotatable=0;points=[[0,0.5],[1,0.5]];portConstraint=eastwest;whiteSpace=wrap;html=1;" parent="lGwnbj7zBoOg-LtK1CzN-47" vertex="1"><mxGeometry y="286" width="190" height="26" as="geometry"/></mxCell><mxCell id="lGwnbj7zBoOg-LtK1CzN-59" value="hireDate: 03/03/2022" style="text;strokeColor=none;fillColor=none;align=left;verticalAlign=top;spacingLeft=4;spacingRight=4;overflow=hidden;rotatable=0;points=[[0,0.5],[1,0.5]];portConstraint=eastwest;whiteSpace=wrap;html=1;" parent="lGwnbj7zBoOg-LtK1CzN-47" vertex="1"><mxGeometry y="312" width="190" height="26" as="geometry"/></mxCell><mxCell id="lGwnbj7zBoOg-LtK1CzN-60" value="isLogged: false" style="text;strokeColor=none;fillColor=none;align=left;verticalAlign=top;spacingLeft=4;spacingRight=4;overflow=hidden;rotatable=0;points=[[0,0.5],[1,0.5]];portConstraint=eastwest;whiteSpace=wrap;html=1;" parent="lGwnbj7zBoOg-LtK1CzN-47" vertex="1"><mxGeometry y="338" width="190" height="26" as="geometry"/></mxCell><mxCell id="lGwnbj7zBoOg-LtK1CzN-61" value="have" style="edgeStyle=orthogonalEdgeStyle;rounded=0;orthogonalLoop=1;jettySize=auto;html=1;exitX=1.002;exitY=0.946;exitDx=0;exitDy=0;exitPerimeter=0;entryX=1;entryY=0;entryDx=0;entryDy=0;" parent="1" source="lGwnbj7zBoOg-LtK1CzN-75" target="lGwnbj7zBoOg-LtK1CzN-83" edge="1"><mxGeometry relative="1" as="geometry"><Array as="points"><mxPoint x="976" y="749"/><mxPoint x="966" y="749"/></Array></mxGeometry></mxCell><mxCell id="lGwnbj7zBoOg-LtK1CzN-62" value="Employee" style="swimlane;fontStyle=0;childLayout=stackLayout;horizontal=1;startSize=26;fillColor=none;horizontalStack=0;resizeParent=1;resizeParentMax=0;resizeLast=0;collapsible=1;marginBottom=0;whiteSpace=wrap;html=1;" parent="1" vertex="1"><mxGeometry x="786" y="384" width="190" height="364" as="geometry"/></mxCell><mxCell id="lGwnbj7zBoOg-LtK1CzN-63" value="employee: 121314156" style="text;strokeColor=none;fillColor=none;align=left;verticalAlign=top;spacingLeft=4;spacingRight=4;overflow=hidden;rotatable=0;points=[[0,0.5],[1,0.5]];portConstraint=eastwest;whiteSpace=wrap;html=1;" parent="lGwnbj7zBoOg-LtK1CzN-62" vertex="1"><mxGeometry y="26" width="190" height="26" as="geometry"/></mxCell><mxCell id="lGwnbj7zBoOg-LtK1CzN-64" value="firstName: Igor" style="text;strokeColor=none;fillColor=none;align=left;verticalAlign=top;spacingLeft=4;spacingRight=4;overflow=hidden;rotatable=0;points=[[0,0.5],[1,0.5]];portConstraint=eastwest;whiteSpace=wrap;html=1;" parent="lGwnbj7zBoOg-LtK1CzN-62" vertex="1"><mxGeometry y="52" width="190" height="26" as="geometry"/></mxCell><mxCell id="lGwnbj7zBoOg-LtK1CzN-65" value="lastName: Kreed" style="text;strokeColor=none;fillColor=none;align=left;verticalAlign=top;spacingLeft=4;spacingRight=4;overflow=hidden;rotatable=0;points=[[0,0.5],[1,0.5]];portConstraint=eastwest;whiteSpace=wrap;html=1;" parent="lGwnbj7zBoOg-LtK1CzN-62" vertex="1"><mxGeometry y="78" width="190" height="26" as="geometry"/></mxCell><mxCell id="lGwnbj7zBoOg-LtK1CzN-66" value="password: Gv569143" style="text;strokeColor=none;fillColor=none;align=left;verticalAlign=top;spacingLeft=4;spacingRight=4;overflow=hidden;rotatable=0;points=[[0,0.5],[1,0.5]];portConstraint=eastwest;whiteSpace=wrap;html=1;" parent="lGwnbj7zBoOg-LtK1CzN-62" vertex="1"><mxGeometry y="104" width="190" height="26" as="geometry"/></mxCell><mxCell id="lGwnbj7zBoOg-LtK1CzN-67" value="accountNumber: 2344567" style="text;strokeColor=none;fillColor=none;align=left;verticalAlign=top;spacingLeft=4;spacingRight=4;overflow=hidden;rotatable=0;points=[[0,0.5],[1,0.5]];portConstraint=eastwest;whiteSpace=wrap;html=1;" parent="lGwnbj7zBoOg-LtK1CzN-62" vertex="1"><mxGeometry y="130" width="190" height="26" as="geometry"/></mxCell><mxCell id="lGwnbj7zBoOg-LtK1CzN-68" value="branchBankNumber: 12" style="text;strokeColor=none;fillColor=none;align=left;verticalAlign=top;spacingLeft=4;spacingRight=4;overflow=hidden;rotatable=0;points=[[0,0.5],[1,0.5]];portConstraint=eastwest;whiteSpace=wrap;html=1;" parent="lGwnbj7zBoOg-LtK1CzN-62" vertex="1"><mxGeometry y="156" width="190" height="26" as="geometry"/></mxCell><mxCell id="lGwnbj7zBoOg-LtK1CzN-69" value="salary: 40" style="text;strokeColor=none;fillColor=none;align=left;verticalAlign=top;spacingLeft=4;spacingRight=4;overflow=hidden;rotatable=0;points=[[0,0.5],[1,0.5]];portConstraint=eastwest;whiteSpace=wrap;html=1;" parent="lGwnbj7zBoOg-LtK1CzN-62" vertex="1"><mxGeometry y="182" width="190" height="26" as="geometry"/></mxCell><mxCell id="lGwnbj7zBoOg-LtK1CzN-70" value="termsOfEmployment: &quot;...&quot;" style="text;strokeColor=none;fillColor=none;align=left;verticalAlign=top;spacingLeft=4;spacingRight=4;overflow=hidden;rotatable=0;points=[[0,0.5],[1,0.5]];portConstraint=eastwest;whiteSpace=wrap;html=1;" parent="lGwnbj7zBoOg-LtK1CzN-62" vertex="1"><mxGeometry y="208" width="190" height="26" as="geometry"/></mxCell><mxCell id="lGwnbj7zBoOg-LtK1CzN-71" value="statusOfEmployee: student" style="text;strokeColor=none;fillColor=none;align=left;verticalAlign=top;spacingLeft=4;spacingRight=4;overflow=hidden;rotatable=0;points=[[0,0.5],[1,0.5]];portConstraint=eastwest;whiteSpace=wrap;html=1;" parent="lGwnbj7zBoOg-LtK1CzN-62" vertex="1"><mxGeometry y="234" width="190" height="26" as="geometry"/></mxCell><mxCell id="lGwnbj7zBoOg-LtK1CzN-72" value="phoneNumber: 0548877663" style="text;strokeColor=none;fillColor=none;align=left;verticalAlign=top;spacingLeft=4;spacingRight=4;overflow=hidden;rotatable=0;points=[[0,0.5],[1,0.5]];portConstraint=eastwest;whiteSpace=wrap;html=1;" parent="lGwnbj7zBoOg-LtK1CzN-62" vertex="1"><mxGeometry y="260" width="190" height="26" as="geometry"/></mxCell><mxCell id="lGwnbj7zBoOg-LtK1CzN-73" value="RoleType: BRANCHEMPLOYEE" style="text;strokeColor=none;fillColor=none;align=left;verticalAlign=top;spacingLeft=4;spacingRight=4;overflow=hidden;rotatable=0;points=[[0,0.5],[1,0.5]];portConstraint=eastwest;whiteSpace=wrap;html=1;" parent="lGwnbj7zBoOg-LtK1CzN-62" vertex="1"><mxGeometry y="286" width="190" height="26" as="geometry"/></mxCell><mxCell id="lGwnbj7zBoOg-LtK1CzN-74" value="hireDate: 04/04/2022" style="text;strokeColor=none;fillColor=none;align=left;verticalAlign=top;spacingLeft=4;spacingRight=4;overflow=hidden;rotatable=0;points=[[0,0.5],[1,0.5]];portConstraint=eastwest;whiteSpace=wrap;html=1;" parent="lGwnbj7zBoOg-LtK1CzN-62" vertex="1"><mxGeometry y="312" width="190" height="26" as="geometry"/></mxCell><mxCell id="lGwnbj7zBoOg-LtK1CzN-75" value="isLogged: false" style="text;strokeColor=none;fillColor=none;align=left;verticalAlign=top;spacingLeft=4;spacingRight=4;overflow=hidden;rotatable=0;points=[[0,0.5],[1,0.5]];portConstraint=eastwest;whiteSpace=wrap;html=1;" parent="lGwnbj7zBoOg-LtK1CzN-62" vertex="1"><mxGeometry y="338" width="190" height="26" as="geometry"/></mxCell><mxCell id="lGwnbj7zBoOg-LtK1CzN-77" value="Branch" style="swimlane;fontStyle=0;childLayout=stackLayout;horizontal=1;startSize=26;fillColor=none;horizontalStack=0;resizeParent=1;resizeParentMax=0;resizeLast=0;collapsible=1;marginBottom=0;whiteSpace=wrap;html=1;" parent="1" vertex="1"><mxGeometry x="316" y="400" width="190" height="156" as="geometry"/></mxCell><mxCell id="lGwnbj7zBoOg-LtK1CzN-78" value="branchName: Kfar Saba" style="text;strokeColor=none;fillColor=none;align=left;verticalAlign=top;spacingLeft=4;spacingRight=4;overflow=hidden;rotatable=0;points=[[0,0.5],[1,0.5]];portConstraint=eastwest;whiteSpace=wrap;html=1;" parent="lGwnbj7zBoOg-LtK1CzN-77" vertex="1"><mxGeometry y="26" width="190" height="26" as="geometry"/></mxCell><mxCell id="lGwnbj7zBoOg-LtK1CzN-79" value="morningShiftStartHour: 08:00" style="text;strokeColor=none;fillColor=none;align=left;verticalAlign=top;spacingLeft=4;spacingRight=4;overflow=hidden;rotatable=0;points=[[0,0.5],[1,0.5]];portConstraint=eastwest;whiteSpace=wrap;html=1;" parent="lGwnbj7zBoOg-LtK1CzN-77" vertex="1"><mxGeometry y="52" width="190" height="26" as="geometry"/></mxCell><mxCell id="lGwnbj7zBoOg-LtK1CzN-80" value="morningShiftEndHour: 15:00" style="text;strokeColor=none;fillColor=none;align=left;verticalAlign=top;spacingLeft=4;spacingRight=4;overflow=hidden;rotatable=0;points=[[0,0.5],[1,0.5]];portConstraint=eastwest;whiteSpace=wrap;html=1;" parent="lGwnbj7zBoOg-LtK1CzN-77" vertex="1"><mxGeometry y="78" width="190" height="26" as="geometry"/></mxCell><mxCell id="lGwnbj7zBoOg-LtK1CzN-81" value="eveningShiftStartHour: 15:00" style="text;strokeColor=none;fillColor=none;align=left;verticalAlign=top;spacingLeft=4;spacingRight=4;overflow=hidden;rotatable=0;points=[[0,0.5],[1,0.5]];portConstraint=eastwest;whiteSpace=wrap;html=1;" parent="lGwnbj7zBoOg-LtK1CzN-77" vertex="1"><mxGeometry y="104" width="190" height="26" as="geometry"/></mxCell><mxCell id="lGwnbj7zBoOg-LtK1CzN-82" value="eveningShiftEndHour: 22:00" style="text;strokeColor=none;fillColor=none;align=left;verticalAlign=top;spacingLeft=4;spacingRight=4;overflow=hidden;rotatable=0;points=[[0,0.5],[1,0.5]];portConstraint=eastwest;whiteSpace=wrap;html=1;" parent="lGwnbj7zBoOg-LtK1CzN-77" vertex="1"><mxGeometry y="130" width="190" height="26" as="geometry"/></mxCell><mxCell id="lGwnbj7zBoOg-LtK1CzN-83" value="EmployeeConstraint" style="swimlane;fontStyle=0;childLayout=stackLayout;horizontal=1;startSize=26;fillColor=none;horizontalStack=0;resizeParent=1;resizeParentMax=0;resizeLast=0;collapsible=1;marginBottom=0;whiteSpace=wrap;html=1;" parent="1" vertex="1"><mxGeometry x="786" y="880" width="180" height="120" as="geometry"/></mxCell><mxCell id="lGwnbj7zBoOg-LtK1CzN-84" value="constraintId: 170" style="text;strokeColor=none;fillColor=none;align=left;verticalAlign=top;spacingLeft=4;spacingRight=4;overflow=hidden;rotatable=0;points=[[0,0.5],[1,0.5]];portConstraint=eastwest;whiteSpace=wrap;html=1;" parent="lGwnbj7zBoOg-LtK1CzN-83" vertex="1"><mxGeometry y="26" width="180" height="26" as="geometry"/></mxCell><mxCell id="lGwnbj7zBoOg-LtK1CzN-85" value="shiftId: 151" style="text;strokeColor=none;fillColor=none;align=left;verticalAlign=top;spacingLeft=4;spacingRight=4;overflow=hidden;rotatable=0;points=[[0,0.5],[1,0.5]];portConstraint=eastwest;whiteSpace=wrap;html=1;" parent="lGwnbj7zBoOg-LtK1CzN-83" vertex="1"><mxGeometry y="52" width="180" height="26" as="geometry"/></mxCell><mxCell id="lGwnbj7zBoOg-LtK1CzN-86" value="description: &quot;Holiday Vacation, Novigod holiday&quot;" style="text;strokeColor=none;fillColor=none;align=left;verticalAlign=top;spacingLeft=4;spacingRight=4;overflow=hidden;rotatable=0;points=[[0,0.5],[1,0.5]];portConstraint=eastwest;whiteSpace=wrap;html=1;" parent="lGwnbj7zBoOg-LtK1CzN-83" vertex="1"><mxGeometry y="78" width="180" height="42" as="geometry"/></mxCell><mxCell id="lGwnbj7zBoOg-LtK1CzN-87" value="contains" style="edgeStyle=orthogonalEdgeStyle;rounded=0;orthogonalLoop=1;jettySize=auto;html=1;exitX=0;exitY=0.5;exitDx=0;exitDy=0;entryX=1;entryY=0.5;entryDx=0;entryDy=0;endArrow=diamondThin;endFill=0;" parent="1" source="lGwnbj7zBoOg-LtK1CzN-88" target="lGwnbj7zBoOg-LtK1CzN-13" edge="1"><mxGeometry relative="1" as="geometry"/></mxCell><mxCell id="lGwnbj7zBoOg-LtK1CzN-88" value="ResourceController" style="swimlane;fontStyle=0;childLayout=stackLayout;horizontal=1;startSize=26;fillColor=none;horizontalStack=0;resizeParent=1;resizeParentMax=0;resizeLast=0;collapsible=1;marginBottom=0;whiteSpace=wrap;html=1;" parent="1" vertex="1"><mxGeometry x="866" y="289" width="140" height="52" as="geometry"/></mxCell><mxCell id="lGwnbj7zBoOg-LtK1CzN-89" style="edgeStyle=orthogonalEdgeStyle;rounded=0;orthogonalLoop=1;jettySize=auto;html=1;endArrow=block;endFill=0;exitX=0.5;exitY=0;exitDx=0;exitDy=0;" parent="1" source="lGwnbj7zBoOg-LtK1CzN-29" edge="1"><mxGeometry relative="1" as="geometry"><mxPoint x="376" y="629" as="sourcePoint"/><mxPoint x="205" y="540" as="targetPoint"/><Array as="points"><mxPoint x="315" y="570"/><mxPoint x="205" y="570"/></Array></mxGeometry></mxCell><mxCell id="lGwnbj7zBoOg-LtK1CzN-90" style="edgeStyle=orthogonalEdgeStyle;rounded=0;orthogonalLoop=1;jettySize=auto;html=1;exitX=0.5;exitY=0;exitDx=0;exitDy=0;entryX=0.5;entryY=1.038;entryDx=0;entryDy=0;entryPerimeter=0;endArrow=block;endFill=0;" parent="1" source="lGwnbj7zBoOg-LtK1CzN-91" target="lGwnbj7zBoOg-LtK1CzN-46" edge="1"><mxGeometry relative="1" as="geometry"/></mxCell><mxCell id="lGwnbj7zBoOg-LtK1CzN-91" value="BranchEmployee" style="swimlane;fontStyle=0;childLayout=stackLayout;horizontal=1;startSize=26;fillColor=none;horizontalStack=0;resizeParent=1;resizeParentMax=0;resizeLast=0;collapsible=1;marginBottom=0;whiteSpace=wrap;html=1;" parent="1" vertex="1"><mxGeometry x="80" y="1135" width="212" height="104" as="geometry"/></mxCell><mxCell id="lGwnbj7zBoOg-LtK1CzN-92" value="managment: true" style="text;strokeColor=none;fillColor=none;align=left;verticalAlign=top;spacingLeft=4;spacingRight=4;overflow=hidden;rotatable=0;points=[[0,0.5],[1,0.5]];portConstraint=eastwest;whiteSpace=wrap;html=1;" parent="lGwnbj7zBoOg-LtK1CzN-91" vertex="1"><mxGeometry y="26" width="212" height="26" as="geometry"/></mxCell><mxCell id="lGwnbj7zBoOg-LtK1CzN-93" value="cancellations: true" style="text;strokeColor=none;fillColor=none;align=left;verticalAlign=top;spacingLeft=4;spacingRight=4;overflow=hidden;rotatable=0;points=[[0,0.5],[1,0.5]];portConstraint=eastwest;whiteSpace=wrap;html=1;" parent="lGwnbj7zBoOg-LtK1CzN-91" vertex="1"><mxGeometry y="52" width="212" height="26" as="geometry"/></mxCell><mxCell id="DhEKTL-dvTbSW7irkogK-1" value="roles: [ShiftManager]" style="text;strokeColor=none;fillColor=none;align=left;verticalAlign=top;spacingLeft=4;spacingRight=4;overflow=hidden;rotatable=0;points=[[0,0.5],[1,0.5]];portConstraint=eastwest;whiteSpace=wrap;html=1;" parent="lGwnbj7zBoOg-LtK1CzN-91" vertex="1"><mxGeometry y="78" width="212" height="26" as="geometry"/></mxCell><mxCell id="lGwnbj7zBoOg-LtK1CzN-94" style="edgeStyle=orthogonalEdgeStyle;rounded=0;orthogonalLoop=1;jettySize=auto;html=1;exitX=0.5;exitY=0;exitDx=0;exitDy=0;entryX=0.5;entryY=1.038;entryDx=0;entryDy=0;entryPerimeter=0;endArrow=block;endFill=0;" parent="1" source="lGwnbj7zBoOg-LtK1CzN-95" target="lGwnbj7zBoOg-LtK1CzN-60" edge="1"><mxGeometry relative="1" as="geometry"/></mxCell><mxCell id="lGwnbj7zBoOg-LtK1CzN-95" value="BranchEmployee" style="swimlane;fontStyle=0;childLayout=stackLayout;horizontal=1;startSize=26;fillColor=none;horizontalStack=0;resizeParent=1;resizeParentMax=0;resizeLast=0;collapsible=1;marginBottom=0;whiteSpace=wrap;html=1;" parent="1" vertex="1"><mxGeometry x="357" y="1135" width="190" height="110" as="geometry"/></mxCell><mxCell id="lGwnbj7zBoOg-LtK1CzN-96" value="managment: true" style="text;strokeColor=none;fillColor=none;align=left;verticalAlign=top;spacingLeft=4;spacingRight=4;overflow=hidden;rotatable=0;points=[[0,0.5],[1,0.5]];portConstraint=eastwest;whiteSpace=wrap;html=1;" parent="lGwnbj7zBoOg-LtK1CzN-95" vertex="1"><mxGeometry y="26" width="190" height="26" as="geometry"/></mxCell><mxCell id="lGwnbj7zBoOg-LtK1CzN-97" value="cancellations: true" style="text;strokeColor=none;fillColor=none;align=left;verticalAlign=top;spacingLeft=4;spacingRight=4;overflow=hidden;rotatable=0;points=[[0,0.5],[1,0.5]];portConstraint=eastwest;whiteSpace=wrap;html=1;" parent="lGwnbj7zBoOg-LtK1CzN-95" vertex="1"><mxGeometry y="52" width="190" height="26" as="geometry"/></mxCell><mxCell id="DhEKTL-dvTbSW7irkogK-2" value="roles: [ShiftManager]" style="text;strokeColor=none;fillColor=none;align=left;verticalAlign=top;spacingLeft=4;spacingRight=4;overflow=hidden;rotatable=0;points=[[0,0.5],[1,0.5]];portConstraint=eastwest;whiteSpace=wrap;html=1;" parent="lGwnbj7zBoOg-LtK1CzN-95" vertex="1"><mxGeometry y="78" width="190" height="32" as="geometry"/></mxCell><mxCell id="lGwnbj7zBoOg-LtK1CzN-98" style="edgeStyle=orthogonalEdgeStyle;rounded=0;orthogonalLoop=1;jettySize=auto;html=1;exitX=0.5;exitY=0;exitDx=0;exitDy=0;entryX=0.493;entryY=1.051;entryDx=0;entryDy=0;entryPerimeter=0;endArrow=block;endFill=0;" parent="1" source="lGwnbj7zBoOg-LtK1CzN-99" target="lGwnbj7zBoOg-LtK1CzN-75" edge="1"><mxGeometry relative="1" as="geometry"/></mxCell><mxCell id="lGwnbj7zBoOg-LtK1CzN-99" value="BranchEmployee" style="swimlane;fontStyle=0;childLayout=stackLayout;horizontal=1;startSize=26;fillColor=none;horizontalStack=0;resizeParent=1;resizeParentMax=0;resizeLast=0;collapsible=1;marginBottom=0;whiteSpace=wrap;html=1;" parent="1" vertex="1"><mxGeometry x="786" y="779" width="150" height="78" as="geometry"/></mxCell><mxCell id="lGwnbj7zBoOg-LtK1CzN-100" value="managment: true" style="text;strokeColor=none;fillColor=none;align=left;verticalAlign=top;spacingLeft=4;spacingRight=4;overflow=hidden;rotatable=0;points=[[0,0.5],[1,0.5]];portConstraint=eastwest;whiteSpace=wrap;html=1;" parent="lGwnbj7zBoOg-LtK1CzN-99" vertex="1"><mxGeometry y="26" width="150" height="26" as="geometry"/></mxCell><mxCell id="lGwnbj7zBoOg-LtK1CzN-101" value="cancellations: true" style="text;strokeColor=none;fillColor=none;align=left;verticalAlign=top;spacingLeft=4;spacingRight=4;overflow=hidden;rotatable=0;points=[[0,0.5],[1,0.5]];portConstraint=eastwest;whiteSpace=wrap;html=1;" parent="lGwnbj7zBoOg-LtK1CzN-99" vertex="1"><mxGeometry y="52" width="150" height="26" as="geometry"/></mxCell><mxCell id="lGwnbj7zBoOg-LtK1CzN-102" value="איגור קריד מנהל המשמרת של משמרת הבוקר ב-31/12/2022 העביר ביטול של המוצר: קוטג' 5% של תנובה (מספר ספק 12, מספר מוצר אצל הספק 15) במשמרת זו. בנוסף לכך, הוא לא יכול להגיע משמרת בוקר של ה-01/01/2023 עקב חג הנוביגוד שחוגג עם משפחתו. הוא הזין זאת למערכת. במשמרת זו אסי עזר ורותם סלע היו מנהלי המשמרת. התרחיש קורה בסניף אריאל. בתאריך 31/12/2022 הנהג איתי לוי משובץ למשמרת." style="text;html=1;strokeColor=none;fillColor=none;align=right;verticalAlign=middle;whiteSpace=wrap;rounded=0;" parent="1" vertex="1"><mxGeometry x="789.5" y="1190" width="273" height="30" as="geometry"/></mxCell><mxCell id="lGwnbj7zBoOg-LtK1CzN-103" value="" style="group" parent="1" vertex="1" connectable="0"><mxGeometry x="50" y="1485" width="115" height="112" as="geometry"/></mxCell><mxCell id="lGwnbj7zBoOg-LtK1CzN-104" value="BranchDAO" style="swimlane;fontStyle=0;childLayout=stackLayout;horizontal=1;startSize=26;fillColor=none;horizontalStack=0;resizeParent=1;resizeParentMax=0;resizeLast=0;collapsible=1;marginBottom=0;whiteSpace=wrap;html=1;" parent="lGwnbj7zBoOg-LtK1CzN-103" vertex="1"><mxGeometry y="60" width="100" height="52" as="geometry"/></mxCell><mxCell id="lGwnbj7zBoOg-LtK1CzN-105" style="edgeStyle=orthogonalEdgeStyle;rounded=0;orthogonalLoop=1;jettySize=auto;html=1;entryX=0.25;entryY=0;entryDx=0;entryDy=0;endArrow=block;endFill=0;" parent="lGwnbj7zBoOg-LtK1CzN-103" source="lGwnbj7zBoOg-LtK1CzN-106" target="lGwnbj7zBoOg-LtK1CzN-104" edge="1"><mxGeometry relative="1" as="geometry"/></mxCell><mxCell id="lGwnbj7zBoOg-LtK1CzN-106" value="B" style="ellipse;whiteSpace=wrap;html=1;aspect=fixed;fontSize=16;" parent="lGwnbj7zBoOg-LtK1CzN-103" vertex="1"><mxGeometry x="8" y="-10" width="34" height="34" as="geometry"/></mxCell><mxCell id="lGwnbj7zBoOg-LtK1CzN-107" style="edgeStyle=orthogonalEdgeStyle;rounded=0;orthogonalLoop=1;jettySize=auto;html=1;entryX=0.75;entryY=0;entryDx=0;entryDy=0;endArrow=none;endFill=0;" parent="lGwnbj7zBoOg-LtK1CzN-103" source="lGwnbj7zBoOg-LtK1CzN-108" target="lGwnbj7zBoOg-LtK1CzN-104" edge="1"><mxGeometry relative="1" as="geometry"/></mxCell><mxCell id="lGwnbj7zBoOg-LtK1CzN-108" value="C" style="ellipse;whiteSpace=wrap;html=1;aspect=fixed;fontSize=16;" parent="lGwnbj7zBoOg-LtK1CzN-103" vertex="1"><mxGeometry x="58" y="-10" width="34" height="34" as="geometry"/></mxCell><mxCell id="lGwnbj7zBoOg-LtK1CzN-109" value="" style="group" parent="1" vertex="1" connectable="0"><mxGeometry x="173.5" y="1475" width="140" height="122" as="geometry"/></mxCell><mxCell id="lGwnbj7zBoOg-LtK1CzN-110" value="BranchEmployeeDAO" style="swimlane;fontStyle=0;childLayout=stackLayout;horizontal=1;startSize=26;fillColor=none;horizontalStack=0;resizeParent=1;resizeParentMax=0;resizeLast=0;collapsible=1;marginBottom=0;whiteSpace=wrap;html=1;" parent="lGwnbj7zBoOg-LtK1CzN-109" vertex="1"><mxGeometry y="70" width="140" height="52" as="geometry"/></mxCell><mxCell id="lGwnbj7zBoOg-LtK1CzN-111" style="edgeStyle=orthogonalEdgeStyle;rounded=0;orthogonalLoop=1;jettySize=auto;html=1;entryX=0.25;entryY=0;entryDx=0;entryDy=0;endArrow=block;endFill=0;" parent="lGwnbj7zBoOg-LtK1CzN-109" source="lGwnbj7zBoOg-LtK1CzN-112" target="lGwnbj7zBoOg-LtK1CzN-110" edge="1"><mxGeometry relative="1" as="geometry"/></mxCell><mxCell id="lGwnbj7zBoOg-LtK1CzN-112" value="B" style="ellipse;whiteSpace=wrap;html=1;aspect=fixed;fontSize=16;" parent="lGwnbj7zBoOg-LtK1CzN-109" vertex="1"><mxGeometry x="18" width="34" height="34" as="geometry"/></mxCell><mxCell id="lGwnbj7zBoOg-LtK1CzN-113" style="edgeStyle=orthogonalEdgeStyle;rounded=0;orthogonalLoop=1;jettySize=auto;html=1;exitX=0.5;exitY=1;exitDx=0;exitDy=0;entryX=0.75;entryY=0;entryDx=0;entryDy=0;endArrow=none;endFill=0;" parent="lGwnbj7zBoOg-LtK1CzN-109" source="lGwnbj7zBoOg-LtK1CzN-114" target="lGwnbj7zBoOg-LtK1CzN-110" edge="1"><mxGeometry relative="1" as="geometry"/></mxCell><mxCell id="lGwnbj7zBoOg-LtK1CzN-114" value="C" style="ellipse;whiteSpace=wrap;html=1;aspect=fixed;fontSize=16;" parent="lGwnbj7zBoOg-LtK1CzN-109" vertex="1"><mxGeometry x="88" width="34" height="34" as="geometry"/></mxCell><mxCell id="lGwnbj7zBoOg-LtK1CzN-115" value="" style="group" parent="1" vertex="1" connectable="0"><mxGeometry x="339.5" y="1475" width="154" height="122" as="geometry"/></mxCell><mxCell id="lGwnbj7zBoOg-LtK1CzN-116" value="BranchEmployeeRoleDAO" style="swimlane;fontStyle=0;childLayout=stackLayout;horizontal=1;startSize=26;fillColor=none;horizontalStack=0;resizeParent=1;resizeParentMax=0;resizeLast=0;collapsible=1;marginBottom=0;whiteSpace=wrap;html=1;" parent="lGwnbj7zBoOg-LtK1CzN-115" vertex="1"><mxGeometry y="70" width="154" height="52" as="geometry"/></mxCell><mxCell id="lGwnbj7zBoOg-LtK1CzN-117" style="edgeStyle=orthogonalEdgeStyle;rounded=0;orthogonalLoop=1;jettySize=auto;html=1;endArrow=block;endFill=0;entryX=0.25;entryY=0;entryDx=0;entryDy=0;" parent="lGwnbj7zBoOg-LtK1CzN-115" source="lGwnbj7zBoOg-LtK1CzN-118" target="lGwnbj7zBoOg-LtK1CzN-116" edge="1"><mxGeometry relative="1" as="geometry"/></mxCell><mxCell id="lGwnbj7zBoOg-LtK1CzN-118" value="B" style="ellipse;whiteSpace=wrap;html=1;aspect=fixed;fontSize=16;" parent="lGwnbj7zBoOg-LtK1CzN-115" vertex="1"><mxGeometry x="22" width="34" height="34" as="geometry"/></mxCell><mxCell id="lGwnbj7zBoOg-LtK1CzN-119" style="rounded=0;orthogonalLoop=1;jettySize=auto;html=1;exitX=0.5;exitY=1;exitDx=0;exitDy=0;entryX=0.75;entryY=0;entryDx=0;entryDy=0;endArrow=none;endFill=0;" parent="lGwnbj7zBoOg-LtK1CzN-115" source="lGwnbj7zBoOg-LtK1CzN-120" target="lGwnbj7zBoOg-LtK1CzN-116" edge="1"><mxGeometry relative="1" as="geometry"/></mxCell><mxCell id="lGwnbj7zBoOg-LtK1CzN-120" value="C" style="ellipse;whiteSpace=wrap;html=1;aspect=fixed;fontSize=16;" parent="lGwnbj7zBoOg-LtK1CzN-115" vertex="1"><mxGeometry x="99" width="34" height="34" as="geometry"/></mxCell><mxCell id="lGwnbj7zBoOg-LtK1CzN-121" value="" style="group" parent="1" vertex="1" connectable="0"><mxGeometry x="760.5" y="1310" width="110" height="122" as="geometry"/></mxCell><mxCell id="lGwnbj7zBoOg-LtK1CzN-122" value="BranchShiftDAO" style="swimlane;fontStyle=0;childLayout=stackLayout;horizontal=1;startSize=26;fillColor=none;horizontalStack=0;resizeParent=1;resizeParentMax=0;resizeLast=0;collapsible=1;marginBottom=0;whiteSpace=wrap;html=1;" parent="lGwnbj7zBoOg-LtK1CzN-121" vertex="1"><mxGeometry y="70" width="110" height="52" as="geometry"/></mxCell><mxCell id="lGwnbj7zBoOg-LtK1CzN-123" style="edgeStyle=orthogonalEdgeStyle;rounded=0;orthogonalLoop=1;jettySize=auto;html=1;endArrow=block;endFill=0;entryX=0.25;entryY=0;entryDx=0;entryDy=0;" parent="lGwnbj7zBoOg-LtK1CzN-121" source="lGwnbj7zBoOg-LtK1CzN-124" target="lGwnbj7zBoOg-LtK1CzN-122" edge="1"><mxGeometry relative="1" as="geometry"/></mxCell><mxCell id="lGwnbj7zBoOg-LtK1CzN-124" value="B" style="ellipse;whiteSpace=wrap;html=1;aspect=fixed;fontSize=16;" parent="lGwnbj7zBoOg-LtK1CzN-121" vertex="1"><mxGeometry x="11" width="34" height="34" as="geometry"/></mxCell><mxCell id="lGwnbj7zBoOg-LtK1CzN-125" style="rounded=0;orthogonalLoop=1;jettySize=auto;html=1;entryX=0.75;entryY=0;entryDx=0;entryDy=0;endArrow=none;endFill=0;" parent="lGwnbj7zBoOg-LtK1CzN-121" source="lGwnbj7zBoOg-LtK1CzN-126" target="lGwnbj7zBoOg-LtK1CzN-122" edge="1"><mxGeometry relative="1" as="geometry"/></mxCell><mxCell id="lGwnbj7zBoOg-LtK1CzN-126" value="C" style="ellipse;whiteSpace=wrap;html=1;aspect=fixed;fontSize=16;" parent="lGwnbj7zBoOg-LtK1CzN-121" vertex="1"><mxGeometry x="66" width="34" height="34" as="geometry"/></mxCell><mxCell id="lGwnbj7zBoOg-LtK1CzN-127" value="" style="group" parent="1" vertex="1" connectable="0"><mxGeometry x="551.5" y="1310" width="172" height="122" as="geometry"/></mxCell><mxCell id="lGwnbj7zBoOg-LtK1CzN-128" value="ConstraintToEmployeeDAO" style="swimlane;fontStyle=0;childLayout=stackLayout;horizontal=1;startSize=26;fillColor=none;horizontalStack=0;resizeParent=1;resizeParentMax=0;resizeLast=0;collapsible=1;marginBottom=0;whiteSpace=wrap;html=1;" parent="lGwnbj7zBoOg-LtK1CzN-127" vertex="1"><mxGeometry y="70" width="172" height="52" as="geometry"/></mxCell><mxCell id="lGwnbj7zBoOg-LtK1CzN-129" style="edgeStyle=orthogonalEdgeStyle;rounded=0;orthogonalLoop=1;jettySize=auto;html=1;endArrow=block;endFill=0;entryX=0.25;entryY=0;entryDx=0;entryDy=0;" parent="lGwnbj7zBoOg-LtK1CzN-127" source="lGwnbj7zBoOg-LtK1CzN-130" target="lGwnbj7zBoOg-LtK1CzN-128" edge="1"><mxGeometry relative="1" as="geometry"/></mxCell><mxCell id="lGwnbj7zBoOg-LtK1CzN-130" value="B" style="ellipse;whiteSpace=wrap;html=1;aspect=fixed;fontSize=16;" parent="lGwnbj7zBoOg-LtK1CzN-127" vertex="1"><mxGeometry x="26" width="34" height="34" as="geometry"/></mxCell><mxCell id="lGwnbj7zBoOg-LtK1CzN-131" style="edgeStyle=orthogonalEdgeStyle;rounded=0;orthogonalLoop=1;jettySize=auto;html=1;entryX=0.75;entryY=0;entryDx=0;entryDy=0;endArrow=none;endFill=0;" parent="lGwnbj7zBoOg-LtK1CzN-127" source="lGwnbj7zBoOg-LtK1CzN-132" target="lGwnbj7zBoOg-LtK1CzN-128" edge="1"><mxGeometry relative="1" as="geometry"/></mxCell><mxCell id="lGwnbj7zBoOg-LtK1CzN-132" value="C" style="ellipse;whiteSpace=wrap;html=1;aspect=fixed;fontSize=16;" parent="lGwnbj7zBoOg-LtK1CzN-127" vertex="1"><mxGeometry x="112" width="34" height="34" as="geometry"/></mxCell><mxCell id="lGwnbj7zBoOg-LtK1CzN-133" value="" style="group" parent="1" vertex="1" connectable="0"><mxGeometry x="50" y="1620" width="80" height="122" as="geometry"/></mxCell><mxCell id="lGwnbj7zBoOg-LtK1CzN-134" value="DriverDAO" style="swimlane;fontStyle=0;childLayout=stackLayout;horizontal=1;startSize=26;fillColor=none;horizontalStack=0;resizeParent=1;resizeParentMax=0;resizeLast=0;collapsible=1;marginBottom=0;whiteSpace=wrap;html=1;" parent="lGwnbj7zBoOg-LtK1CzN-133" vertex="1"><mxGeometry y="70" width="80" height="52" as="geometry"/></mxCell><mxCell id="lGwnbj7zBoOg-LtK1CzN-135" style="edgeStyle=orthogonalEdgeStyle;rounded=0;orthogonalLoop=1;jettySize=auto;html=1;entryX=0.25;entryY=0;entryDx=0;entryDy=0;endArrow=block;endFill=0;" parent="lGwnbj7zBoOg-LtK1CzN-133" source="lGwnbj7zBoOg-LtK1CzN-136" target="lGwnbj7zBoOg-LtK1CzN-134" edge="1"><mxGeometry relative="1" as="geometry"/></mxCell><mxCell id="lGwnbj7zBoOg-LtK1CzN-136" value="B" style="ellipse;whiteSpace=wrap;html=1;aspect=fixed;fontSize=16;" parent="lGwnbj7zBoOg-LtK1CzN-133" vertex="1"><mxGeometry x="3" width="34" height="34" as="geometry"/></mxCell><mxCell id="lGwnbj7zBoOg-LtK1CzN-137" style="edgeStyle=orthogonalEdgeStyle;rounded=0;orthogonalLoop=1;jettySize=auto;html=1;entryX=0.75;entryY=0;entryDx=0;entryDy=0;endArrow=none;endFill=0;" parent="lGwnbj7zBoOg-LtK1CzN-133" source="lGwnbj7zBoOg-LtK1CzN-138" target="lGwnbj7zBoOg-LtK1CzN-134" edge="1"><mxGeometry relative="1" as="geometry"/></mxCell><mxCell id="lGwnbj7zBoOg-LtK1CzN-138" value="C" style="ellipse;whiteSpace=wrap;html=1;aspect=fixed;fontSize=16;" parent="lGwnbj7zBoOg-LtK1CzN-133" vertex="1"><mxGeometry x="43" width="34" height="34" as="geometry"/></mxCell><mxCell id="lGwnbj7zBoOg-LtK1CzN-139" value="" style="group" parent="1" vertex="1" connectable="0"><mxGeometry x="153.5" y="1620" width="140" height="122" as="geometry"/></mxCell><mxCell id="lGwnbj7zBoOg-LtK1CzN-140" value="DriverDeliveryDatesDAO" style="swimlane;fontStyle=0;childLayout=stackLayout;horizontal=1;startSize=26;fillColor=none;horizontalStack=0;resizeParent=1;resizeParentMax=0;resizeLast=0;collapsible=1;marginBottom=0;whiteSpace=wrap;html=1;" parent="lGwnbj7zBoOg-LtK1CzN-139" vertex="1"><mxGeometry y="70" width="140" height="52" as="geometry"/></mxCell><mxCell id="lGwnbj7zBoOg-LtK1CzN-141" style="edgeStyle=orthogonalEdgeStyle;rounded=0;orthogonalLoop=1;jettySize=auto;html=1;endArrow=block;endFill=0;entryX=0.25;entryY=0;entryDx=0;entryDy=0;" parent="lGwnbj7zBoOg-LtK1CzN-139" source="lGwnbj7zBoOg-LtK1CzN-142" target="lGwnbj7zBoOg-LtK1CzN-140" edge="1"><mxGeometry relative="1" as="geometry"/></mxCell><mxCell id="lGwnbj7zBoOg-LtK1CzN-142" value="B" style="ellipse;whiteSpace=wrap;html=1;aspect=fixed;fontSize=16;" parent="lGwnbj7zBoOg-LtK1CzN-139" vertex="1"><mxGeometry x="18" width="34" height="34" as="geometry"/></mxCell><mxCell id="lGwnbj7zBoOg-LtK1CzN-143" style="edgeStyle=orthogonalEdgeStyle;rounded=0;orthogonalLoop=1;jettySize=auto;html=1;entryX=0.75;entryY=0;entryDx=0;entryDy=0;endArrow=none;endFill=0;" parent="lGwnbj7zBoOg-LtK1CzN-139" source="lGwnbj7zBoOg-LtK1CzN-144" target="lGwnbj7zBoOg-LtK1CzN-140" edge="1"><mxGeometry relative="1" as="geometry"/></mxCell><mxCell id="lGwnbj7zBoOg-LtK1CzN-144" value="C" style="ellipse;whiteSpace=wrap;html=1;aspect=fixed;fontSize=16;" parent="lGwnbj7zBoOg-LtK1CzN-139" vertex="1"><mxGeometry x="88" width="34" height="34" as="geometry"/></mxCell><mxCell id="lGwnbj7zBoOg-LtK1CzN-145" value="" style="group" parent="1" vertex="1" connectable="0"><mxGeometry x="323.5" y="1620" width="140" height="122" as="geometry"/></mxCell><mxCell id="lGwnbj7zBoOg-LtK1CzN-146" value="DriverQualificationsDAO" style="swimlane;fontStyle=0;childLayout=stackLayout;horizontal=1;startSize=26;fillColor=none;horizontalStack=0;resizeParent=1;resizeParentMax=0;resizeLast=0;collapsible=1;marginBottom=0;whiteSpace=wrap;html=1;" parent="lGwnbj7zBoOg-LtK1CzN-145" vertex="1"><mxGeometry y="70" width="140" height="52" as="geometry"/></mxCell><mxCell id="lGwnbj7zBoOg-LtK1CzN-147" style="edgeStyle=orthogonalEdgeStyle;rounded=0;orthogonalLoop=1;jettySize=auto;html=1;exitX=0.5;exitY=1;exitDx=0;exitDy=0;endArrow=block;endFill=0;entryX=0.25;entryY=0;entryDx=0;entryDy=0;" parent="lGwnbj7zBoOg-LtK1CzN-145" source="lGwnbj7zBoOg-LtK1CzN-148" target="lGwnbj7zBoOg-LtK1CzN-146" edge="1"><mxGeometry relative="1" as="geometry"/></mxCell><mxCell id="lGwnbj7zBoOg-LtK1CzN-148" value="B" style="ellipse;whiteSpace=wrap;html=1;aspect=fixed;fontSize=16;" parent="lGwnbj7zBoOg-LtK1CzN-145" vertex="1"><mxGeometry x="18" width="34" height="34" as="geometry"/></mxCell><mxCell id="lGwnbj7zBoOg-LtK1CzN-149" style="edgeStyle=orthogonalEdgeStyle;rounded=0;orthogonalLoop=1;jettySize=auto;html=1;exitX=0.5;exitY=1;exitDx=0;exitDy=0;entryX=0.75;entryY=0;entryDx=0;entryDy=0;endArrow=none;endFill=0;" parent="lGwnbj7zBoOg-LtK1CzN-145" source="lGwnbj7zBoOg-LtK1CzN-150" target="lGwnbj7zBoOg-LtK1CzN-146" edge="1"><mxGeometry relative="1" as="geometry"/></mxCell><mxCell id="lGwnbj7zBoOg-LtK1CzN-150" value="C" style="ellipse;whiteSpace=wrap;html=1;aspect=fixed;fontSize=16;" parent="lGwnbj7zBoOg-LtK1CzN-145" vertex="1"><mxGeometry x="86.5" width="34" height="34" as="geometry"/></mxCell><mxCell id="lGwnbj7zBoOg-LtK1CzN-151" value="" style="group" parent="1" vertex="1" connectable="0"><mxGeometry x="483.5" y="1620" width="140" height="122" as="geometry"/></mxCell><mxCell id="lGwnbj7zBoOg-LtK1CzN-152" value="DriverScheduleDAO" style="swimlane;fontStyle=0;childLayout=stackLayout;horizontal=1;startSize=26;fillColor=none;horizontalStack=0;resizeParent=1;resizeParentMax=0;resizeLast=0;collapsible=1;marginBottom=0;whiteSpace=wrap;html=1;" parent="lGwnbj7zBoOg-LtK1CzN-151" vertex="1"><mxGeometry y="70" width="140" height="52" as="geometry"/></mxCell><mxCell id="lGwnbj7zBoOg-LtK1CzN-153" style="edgeStyle=orthogonalEdgeStyle;rounded=0;orthogonalLoop=1;jettySize=auto;html=1;endArrow=block;endFill=0;entryX=0.25;entryY=0;entryDx=0;entryDy=0;" parent="lGwnbj7zBoOg-LtK1CzN-151" source="lGwnbj7zBoOg-LtK1CzN-154" target="lGwnbj7zBoOg-LtK1CzN-152" edge="1"><mxGeometry relative="1" as="geometry"/></mxCell><mxCell id="lGwnbj7zBoOg-LtK1CzN-154" value="B" style="ellipse;whiteSpace=wrap;html=1;aspect=fixed;fontSize=16;" parent="lGwnbj7zBoOg-LtK1CzN-151" vertex="1"><mxGeometry x="18" width="34" height="34" as="geometry"/></mxCell><mxCell id="lGwnbj7zBoOg-LtK1CzN-155" style="edgeStyle=orthogonalEdgeStyle;rounded=0;orthogonalLoop=1;jettySize=auto;html=1;entryX=0.75;entryY=0;entryDx=0;entryDy=0;endArrow=none;endFill=0;" parent="lGwnbj7zBoOg-LtK1CzN-151" source="lGwnbj7zBoOg-LtK1CzN-156" target="lGwnbj7zBoOg-LtK1CzN-152" edge="1"><mxGeometry relative="1" as="geometry"/></mxCell><mxCell id="lGwnbj7zBoOg-LtK1CzN-156" value="C" style="ellipse;whiteSpace=wrap;html=1;aspect=fixed;fontSize=16;" parent="lGwnbj7zBoOg-LtK1CzN-151" vertex="1"><mxGeometry x="88" width="34" height="34" as="geometry"/></mxCell><mxCell id="lGwnbj7zBoOg-LtK1CzN-157" value="" style="group" parent="1" vertex="1" connectable="0"><mxGeometry x="651.75" y="1620" width="86" height="122" as="geometry"/></mxCell><mxCell id="lGwnbj7zBoOg-LtK1CzN-158" value="DriverShift" style="swimlane;fontStyle=0;childLayout=stackLayout;horizontal=1;startSize=26;fillColor=none;horizontalStack=0;resizeParent=1;resizeParentMax=0;resizeLast=0;collapsible=1;marginBottom=0;whiteSpace=wrap;html=1;" parent="lGwnbj7zBoOg-LtK1CzN-157" vertex="1"><mxGeometry y="70" width="86" height="52" as="geometry"/></mxCell><mxCell id="lGwnbj7zBoOg-LtK1CzN-159" style="edgeStyle=orthogonalEdgeStyle;rounded=0;orthogonalLoop=1;jettySize=auto;html=1;entryX=0.25;entryY=0;entryDx=0;entryDy=0;endArrow=block;endFill=0;" parent="lGwnbj7zBoOg-LtK1CzN-157" source="lGwnbj7zBoOg-LtK1CzN-160" target="lGwnbj7zBoOg-LtK1CzN-158" edge="1"><mxGeometry relative="1" as="geometry"/></mxCell><mxCell id="lGwnbj7zBoOg-LtK1CzN-160" value="B" style="ellipse;whiteSpace=wrap;html=1;aspect=fixed;fontSize=16;" parent="lGwnbj7zBoOg-LtK1CzN-157" vertex="1"><mxGeometry x="4" width="34" height="34" as="geometry"/></mxCell><mxCell id="lGwnbj7zBoOg-LtK1CzN-161" style="edgeStyle=orthogonalEdgeStyle;rounded=0;orthogonalLoop=1;jettySize=auto;html=1;entryX=0.75;entryY=0;entryDx=0;entryDy=0;endArrow=none;endFill=0;" parent="lGwnbj7zBoOg-LtK1CzN-157" source="lGwnbj7zBoOg-LtK1CzN-162" target="lGwnbj7zBoOg-LtK1CzN-158" edge="1"><mxGeometry relative="1" as="geometry"/></mxCell><mxCell id="lGwnbj7zBoOg-LtK1CzN-162" value="C" style="ellipse;whiteSpace=wrap;html=1;aspect=fixed;fontSize=16;" parent="lGwnbj7zBoOg-LtK1CzN-157" vertex="1"><mxGeometry x="48" width="34" height="34" as="geometry"/></mxCell><mxCell id="lGwnbj7zBoOg-LtK1CzN-163" value="" style="group" parent="1" vertex="1" connectable="0"><mxGeometry x="775.5" y="1620" width="159" height="122" as="geometry"/></mxCell><mxCell id="lGwnbj7zBoOg-LtK1CzN-164" value="EmployeeConstraintDAO" style="swimlane;fontStyle=0;childLayout=stackLayout;horizontal=1;startSize=26;fillColor=none;horizontalStack=0;resizeParent=1;resizeParentMax=0;resizeLast=0;collapsible=1;marginBottom=0;whiteSpace=wrap;html=1;" parent="lGwnbj7zBoOg-LtK1CzN-163" vertex="1"><mxGeometry y="70" width="140" height="52" as="geometry"/></mxCell><mxCell id="lGwnbj7zBoOg-LtK1CzN-165" style="edgeStyle=orthogonalEdgeStyle;rounded=0;orthogonalLoop=1;jettySize=auto;html=1;endArrow=block;endFill=0;entryX=0.25;entryY=0;entryDx=0;entryDy=0;" parent="lGwnbj7zBoOg-LtK1CzN-163" source="lGwnbj7zBoOg-LtK1CzN-166" target="lGwnbj7zBoOg-LtK1CzN-164" edge="1"><mxGeometry relative="1" as="geometry"/></mxCell><mxCell id="lGwnbj7zBoOg-LtK1CzN-166" value="B" style="ellipse;whiteSpace=wrap;html=1;aspect=fixed;fontSize=16;" parent="lGwnbj7zBoOg-LtK1CzN-163" vertex="1"><mxGeometry x="18" width="34" height="34" as="geometry"/></mxCell><mxCell id="lGwnbj7zBoOg-LtK1CzN-167" style="edgeStyle=orthogonalEdgeStyle;rounded=0;orthogonalLoop=1;jettySize=auto;html=1;entryX=0.75;entryY=0;entryDx=0;entryDy=0;endArrow=none;endFill=0;" parent="lGwnbj7zBoOg-LtK1CzN-163" edge="1"><mxGeometry relative="1" as="geometry"><mxPoint x="103" y="34" as="sourcePoint"/><mxPoint x="106" y="70" as="targetPoint"/></mxGeometry></mxCell><mxCell id="lGwnbj7zBoOg-LtK1CzN-168" value="C" style="ellipse;whiteSpace=wrap;html=1;aspect=fixed;fontSize=16;" parent="lGwnbj7zBoOg-LtK1CzN-163" vertex="1"><mxGeometry x="89" width="34" height="34" as="geometry"/></mxCell><mxCell id="lGwnbj7zBoOg-LtK1CzN-169" value="" style="group" parent="1" vertex="1" connectable="0"><mxGeometry x="512.5" y="1485" width="102" height="112" as="geometry"/></mxCell><mxCell id="lGwnbj7zBoOg-LtK1CzN-170" value="EmployeeDAO" style="swimlane;fontStyle=0;childLayout=stackLayout;horizontal=1;startSize=26;fillColor=none;horizontalStack=0;resizeParent=1;resizeParentMax=0;resizeLast=0;collapsible=1;marginBottom=0;whiteSpace=wrap;html=1;" parent="lGwnbj7zBoOg-LtK1CzN-169" vertex="1"><mxGeometry y="60" width="90" height="52" as="geometry"/></mxCell><mxCell id="lGwnbj7zBoOg-LtK1CzN-171" style="edgeStyle=orthogonalEdgeStyle;rounded=0;orthogonalLoop=1;jettySize=auto;html=1;exitX=0.5;exitY=1;exitDx=0;exitDy=0;entryX=0.25;entryY=0;entryDx=0;entryDy=0;endArrow=block;endFill=0;" parent="lGwnbj7zBoOg-LtK1CzN-169" source="lGwnbj7zBoOg-LtK1CzN-172" target="lGwnbj7zBoOg-LtK1CzN-170" edge="1"><mxGeometry relative="1" as="geometry"/></mxCell><mxCell id="lGwnbj7zBoOg-LtK1CzN-172" value="B" style="ellipse;whiteSpace=wrap;html=1;aspect=fixed;fontSize=16;" parent="lGwnbj7zBoOg-LtK1CzN-169" vertex="1"><mxGeometry x="7" width="34" height="34" as="geometry"/></mxCell><mxCell id="lGwnbj7zBoOg-LtK1CzN-173" style="edgeStyle=orthogonalEdgeStyle;rounded=0;orthogonalLoop=1;jettySize=auto;html=1;exitX=0.5;exitY=1;exitDx=0;exitDy=0;entryX=0.75;entryY=0;entryDx=0;entryDy=0;endArrow=none;endFill=0;" parent="lGwnbj7zBoOg-LtK1CzN-169" source="lGwnbj7zBoOg-LtK1CzN-174" target="lGwnbj7zBoOg-LtK1CzN-170" edge="1"><mxGeometry relative="1" as="geometry"/></mxCell><mxCell id="lGwnbj7zBoOg-LtK1CzN-174" value="C" style="ellipse;whiteSpace=wrap;html=1;aspect=fixed;fontSize=16;" parent="lGwnbj7zBoOg-LtK1CzN-169" vertex="1"><mxGeometry x="49" width="34" height="34" as="geometry"/></mxCell><mxCell id="lGwnbj7zBoOg-LtK1CzN-175" value="" style="group" parent="1" vertex="1" connectable="0"><mxGeometry x="890.5" y="1475" width="185" height="122" as="geometry"/></mxCell><mxCell id="lGwnbj7zBoOg-LtK1CzN-176" value="ProductCancellationToShiftDAO" style="swimlane;fontStyle=0;childLayout=stackLayout;horizontal=1;startSize=26;fillColor=none;horizontalStack=0;resizeParent=1;resizeParentMax=0;resizeLast=0;collapsible=1;marginBottom=0;whiteSpace=wrap;html=1;" parent="lGwnbj7zBoOg-LtK1CzN-175" vertex="1"><mxGeometry y="70" width="185" height="52" as="geometry"/></mxCell><mxCell id="lGwnbj7zBoOg-LtK1CzN-177" style="edgeStyle=orthogonalEdgeStyle;rounded=0;orthogonalLoop=1;jettySize=auto;html=1;entryX=0.25;entryY=0;entryDx=0;entryDy=0;endArrow=block;endFill=0;" parent="lGwnbj7zBoOg-LtK1CzN-175" source="lGwnbj7zBoOg-LtK1CzN-178" edge="1"><mxGeometry relative="1" as="geometry"><mxPoint x="59.25" y="70" as="targetPoint"/></mxGeometry></mxCell><mxCell id="lGwnbj7zBoOg-LtK1CzN-178" value="B" style="ellipse;whiteSpace=wrap;html=1;aspect=fixed;fontSize=16;" parent="lGwnbj7zBoOg-LtK1CzN-175" vertex="1"><mxGeometry x="42.5" width="34" height="34" as="geometry"/></mxCell><mxCell id="lGwnbj7zBoOg-LtK1CzN-179" style="edgeStyle=orthogonalEdgeStyle;rounded=0;orthogonalLoop=1;jettySize=auto;html=1;entryX=0.75;entryY=0;entryDx=0;entryDy=0;endArrow=none;endFill=0;" parent="lGwnbj7zBoOg-LtK1CzN-175" source="lGwnbj7zBoOg-LtK1CzN-180" edge="1"><mxGeometry relative="1" as="geometry"><mxPoint x="151.75" y="70" as="targetPoint"/></mxGeometry></mxCell><mxCell id="lGwnbj7zBoOg-LtK1CzN-180" value="C" style="ellipse;whiteSpace=wrap;html=1;aspect=fixed;fontSize=16;" parent="lGwnbj7zBoOg-LtK1CzN-175" vertex="1"><mxGeometry x="134.5" width="34" height="34" as="geometry"/></mxCell><mxCell id="lGwnbj7zBoOg-LtK1CzN-181" value="" style="group" parent="1" vertex="1" connectable="0"><mxGeometry x="643.5" y="1475" width="102.5" height="122" as="geometry"/></mxCell><mxCell id="lGwnbj7zBoOg-LtK1CzN-182" style="edgeStyle=orthogonalEdgeStyle;rounded=0;orthogonalLoop=1;jettySize=auto;html=1;exitX=0.75;exitY=0;exitDx=0;exitDy=0;entryX=0.5;entryY=1;entryDx=0;entryDy=0;endArrow=none;endFill=0;" parent="lGwnbj7zBoOg-LtK1CzN-181" source="lGwnbj7zBoOg-LtK1CzN-183" target="lGwnbj7zBoOg-LtK1CzN-186" edge="1"><mxGeometry relative="1" as="geometry"/></mxCell><mxCell id="lGwnbj7zBoOg-LtK1CzN-183" value="RoleCountDAO" style="swimlane;fontStyle=0;childLayout=stackLayout;horizontal=1;startSize=26;fillColor=none;horizontalStack=0;resizeParent=1;resizeParentMax=0;resizeLast=0;collapsible=1;marginBottom=0;whiteSpace=wrap;html=1;" parent="lGwnbj7zBoOg-LtK1CzN-181" vertex="1"><mxGeometry y="70" width="102.5" height="52" as="geometry"/></mxCell><mxCell id="lGwnbj7zBoOg-LtK1CzN-184" style="edgeStyle=orthogonalEdgeStyle;rounded=0;orthogonalLoop=1;jettySize=auto;html=1;entryX=0.25;entryY=0;entryDx=0;entryDy=0;endArrow=block;endFill=0;" parent="lGwnbj7zBoOg-LtK1CzN-181" source="lGwnbj7zBoOg-LtK1CzN-185" target="lGwnbj7zBoOg-LtK1CzN-183" edge="1"><mxGeometry relative="1" as="geometry"/></mxCell><mxCell id="lGwnbj7zBoOg-LtK1CzN-185" value="B" style="ellipse;whiteSpace=wrap;html=1;aspect=fixed;fontSize=16;" parent="lGwnbj7zBoOg-LtK1CzN-181" vertex="1"><mxGeometry x="9.25" width="34" height="34" as="geometry"/></mxCell><mxCell id="lGwnbj7zBoOg-LtK1CzN-186" value="C" style="ellipse;whiteSpace=wrap;html=1;aspect=fixed;fontSize=16;" parent="lGwnbj7zBoOg-LtK1CzN-181" vertex="1"><mxGeometry x="60.5" width="34" height="34" as="geometry"/></mxCell><mxCell id="lGwnbj7zBoOg-LtK1CzN-187" value="" style="group" parent="1" vertex="1" connectable="0"><mxGeometry x="775.5" y="1475" width="103" height="122" as="geometry"/></mxCell><mxCell id="lGwnbj7zBoOg-LtK1CzN-188" value="ScheduleDAO" style="swimlane;fontStyle=0;childLayout=stackLayout;horizontal=1;startSize=26;fillColor=none;horizontalStack=0;resizeParent=1;resizeParentMax=0;resizeLast=0;collapsible=1;marginBottom=0;whiteSpace=wrap;html=1;" parent="lGwnbj7zBoOg-LtK1CzN-187" vertex="1"><mxGeometry y="70" width="103" height="52" as="geometry"/></mxCell><mxCell id="lGwnbj7zBoOg-LtK1CzN-189" style="rounded=0;orthogonalLoop=1;jettySize=auto;html=1;endArrow=block;endFill=0;entryX=0.25;entryY=0;entryDx=0;entryDy=0;" parent="lGwnbj7zBoOg-LtK1CzN-187" source="lGwnbj7zBoOg-LtK1CzN-190" target="lGwnbj7zBoOg-LtK1CzN-188" edge="1"><mxGeometry relative="1" as="geometry"/></mxCell><mxCell id="lGwnbj7zBoOg-LtK1CzN-190" value="B" style="ellipse;whiteSpace=wrap;html=1;aspect=fixed;fontSize=16;" parent="lGwnbj7zBoOg-LtK1CzN-187" vertex="1"><mxGeometry x="9.5" width="34" height="34" as="geometry"/></mxCell><mxCell id="lGwnbj7zBoOg-LtK1CzN-191" style="edgeStyle=orthogonalEdgeStyle;rounded=0;orthogonalLoop=1;jettySize=auto;html=1;entryX=0.75;entryY=0;entryDx=0;entryDy=0;endArrow=none;endFill=0;" parent="lGwnbj7zBoOg-LtK1CzN-187" source="lGwnbj7zBoOg-LtK1CzN-192" target="lGwnbj7zBoOg-LtK1CzN-188" edge="1"><mxGeometry relative="1" as="geometry"/></mxCell><mxCell id="lGwnbj7zBoOg-LtK1CzN-192" value="C" style="ellipse;whiteSpace=wrap;html=1;aspect=fixed;fontSize=16;" parent="lGwnbj7zBoOg-LtK1CzN-187" vertex="1"><mxGeometry x="60" width="34" height="34" as="geometry"/></mxCell><mxCell id="lGwnbj7zBoOg-LtK1CzN-193" value="" style="group" parent="1" vertex="1" connectable="0"><mxGeometry x="934.5" y="1310" width="103" height="122" as="geometry"/></mxCell><mxCell id="lGwnbj7zBoOg-LtK1CzN-194" value="ShiftDAO" style="swimlane;fontStyle=0;childLayout=stackLayout;horizontal=1;startSize=26;fillColor=none;horizontalStack=0;resizeParent=1;resizeParentMax=0;resizeLast=0;collapsible=1;marginBottom=0;whiteSpace=wrap;html=1;" parent="lGwnbj7zBoOg-LtK1CzN-193" vertex="1"><mxGeometry y="70" width="103" height="52" as="geometry"/></mxCell><mxCell id="lGwnbj7zBoOg-LtK1CzN-195" style="rounded=0;orthogonalLoop=1;jettySize=auto;html=1;endArrow=block;endFill=0;entryX=0.25;entryY=0;entryDx=0;entryDy=0;" parent="lGwnbj7zBoOg-LtK1CzN-193" source="lGwnbj7zBoOg-LtK1CzN-196" target="lGwnbj7zBoOg-LtK1CzN-194" edge="1"><mxGeometry relative="1" as="geometry"/></mxCell><mxCell id="lGwnbj7zBoOg-LtK1CzN-196" value="B" style="ellipse;whiteSpace=wrap;html=1;aspect=fixed;fontSize=16;" parent="lGwnbj7zBoOg-LtK1CzN-193" vertex="1"><mxGeometry x="8" width="34" height="34" as="geometry"/></mxCell><mxCell id="lGwnbj7zBoOg-LtK1CzN-197" style="edgeStyle=orthogonalEdgeStyle;rounded=0;orthogonalLoop=1;jettySize=auto;html=1;entryX=0.75;entryY=0;entryDx=0;entryDy=0;endArrow=none;endFill=0;" parent="lGwnbj7zBoOg-LtK1CzN-193" source="lGwnbj7zBoOg-LtK1CzN-198" target="lGwnbj7zBoOg-LtK1CzN-194" edge="1"><mxGeometry relative="1" as="geometry"/></mxCell><mxCell id="lGwnbj7zBoOg-LtK1CzN-198" value="C" style="ellipse;whiteSpace=wrap;html=1;aspect=fixed;fontSize=16;" parent="lGwnbj7zBoOg-LtK1CzN-193" vertex="1"><mxGeometry x="60" width="34" height="34" as="geometry"/></mxCell><mxCell id="lGwnbj7zBoOg-LtK1CzN-199" value="" style="group" parent="1" vertex="1" connectable="0"><mxGeometry x="959.5" y="1620" width="103" height="122" as="geometry"/></mxCell><mxCell id="lGwnbj7zBoOg-LtK1CzN-200" value="TimesOfShiftsDAO" style="swimlane;fontStyle=0;childLayout=stackLayout;horizontal=1;startSize=26;fillColor=none;horizontalStack=0;resizeParent=1;resizeParentMax=0;resizeLast=0;collapsible=1;marginBottom=0;whiteSpace=wrap;html=1;" parent="lGwnbj7zBoOg-LtK1CzN-199" vertex="1"><mxGeometry y="70" width="103" height="52" as="geometry"/></mxCell><mxCell id="lGwnbj7zBoOg-LtK1CzN-201" style="rounded=0;orthogonalLoop=1;jettySize=auto;html=1;entryX=0.25;entryY=0;entryDx=0;entryDy=0;endArrow=block;endFill=0;" parent="lGwnbj7zBoOg-LtK1CzN-199" source="lGwnbj7zBoOg-LtK1CzN-202" target="lGwnbj7zBoOg-LtK1CzN-200" edge="1"><mxGeometry relative="1" as="geometry"/></mxCell><mxCell id="lGwnbj7zBoOg-LtK1CzN-202" value="B" style="ellipse;whiteSpace=wrap;html=1;aspect=fixed;fontSize=16;" parent="lGwnbj7zBoOg-LtK1CzN-199" vertex="1"><mxGeometry x="8" width="34" height="34" as="geometry"/></mxCell><mxCell id="lGwnbj7zBoOg-LtK1CzN-203" style="edgeStyle=orthogonalEdgeStyle;rounded=0;orthogonalLoop=1;jettySize=auto;html=1;entryX=0.75;entryY=0;entryDx=0;entryDy=0;endArrow=none;endFill=0;" parent="lGwnbj7zBoOg-LtK1CzN-199" source="lGwnbj7zBoOg-LtK1CzN-204" target="lGwnbj7zBoOg-LtK1CzN-200" edge="1"><mxGeometry relative="1" as="geometry"/></mxCell><mxCell id="lGwnbj7zBoOg-LtK1CzN-204" value="C" style="ellipse;whiteSpace=wrap;html=1;aspect=fixed;fontSize=16;" parent="lGwnbj7zBoOg-LtK1CzN-199" vertex="1"><mxGeometry x="60" width="34" height="34" as="geometry"/></mxCell><mxCell id="lGwnbj7zBoOg-LtK1CzN-205" value="" style="group" parent="1" vertex="1" connectable="0"><mxGeometry x="53.5" y="1340" width="100" height="103" as="geometry"/></mxCell><mxCell id="lGwnbj7zBoOg-LtK1CzN-206" value="AbstractDAO" style="swimlane;fontStyle=0;childLayout=stackLayout;horizontal=1;startSize=26;fillColor=none;horizontalStack=0;resizeParent=1;resizeParentMax=0;resizeLast=0;collapsible=1;marginBottom=0;whiteSpace=wrap;html=1;" parent="lGwnbj7zBoOg-LtK1CzN-205" vertex="1"><mxGeometry width="100" height="52" as="geometry"/></mxCell><mxCell id="lGwnbj7zBoOg-LtK1CzN-207" value="B" style="ellipse;whiteSpace=wrap;html=1;aspect=fixed;fontSize=16;" parent="lGwnbj7zBoOg-LtK1CzN-205" vertex="1"><mxGeometry x="32" y="69" width="34" height="34" as="geometry"/></mxCell><mxCell id="lGwnbj7zBoOg-LtK1CzN-208" style="edgeStyle=orthogonalEdgeStyle;rounded=0;orthogonalLoop=1;jettySize=auto;html=1;exitX=0.5;exitY=1;exitDx=0;exitDy=0;entryX=0.5;entryY=0;entryDx=0;entryDy=0;endArrow=none;endFill=0;" parent="lGwnbj7zBoOg-LtK1CzN-205" source="lGwnbj7zBoOg-LtK1CzN-206" target="lGwnbj7zBoOg-LtK1CzN-207" edge="1"><mxGeometry relative="1" as="geometry"/></mxCell><mxCell id="lGwnbj7zBoOg-LtK1CzN-209" value="" style="group" parent="1" vertex="1" connectable="0"><mxGeometry x="193.5" y="1260" width="230" height="194" as="geometry"/></mxCell><mxCell id="lGwnbj7zBoOg-LtK1CzN-210" value="A" style="ellipse;whiteSpace=wrap;html=1;aspect=fixed;fontSize=16;" parent="lGwnbj7zBoOg-LtK1CzN-209" vertex="1"><mxGeometry x="98" width="34" height="34" as="geometry"/></mxCell><mxCell id="lGwnbj7zBoOg-LtK1CzN-211" value="DALFacade" style="swimlane;fontStyle=0;childLayout=stackLayout;horizontal=1;startSize=26;fillColor=none;horizontalStack=0;resizeParent=1;resizeParentMax=0;resizeLast=0;collapsible=1;marginBottom=0;whiteSpace=wrap;html=1;" parent="lGwnbj7zBoOg-LtK1CzN-209" vertex="1"><mxGeometry y="80" width="230" height="52" as="geometry"/></mxCell><mxCell id="lGwnbj7zBoOg-LtK1CzN-212" value="contains" style="edgeStyle=orthogonalEdgeStyle;rounded=0;orthogonalLoop=1;jettySize=auto;html=1;exitX=0.5;exitY=1;exitDx=0;exitDy=0;entryX=0.5;entryY=0;entryDx=0;entryDy=0;endArrow=none;endFill=0;" parent="lGwnbj7zBoOg-LtK1CzN-209" source="lGwnbj7zBoOg-LtK1CzN-210" target="lGwnbj7zBoOg-LtK1CzN-211" edge="1"><mxGeometry relative="1" as="geometry"/></mxCell><mxCell id="lGwnbj7zBoOg-LtK1CzN-213" value="contains" style="edgeStyle=orthogonalEdgeStyle;rounded=0;orthogonalLoop=1;jettySize=auto;html=1;exitX=0.5;exitY=0;exitDx=0;exitDy=0;entryX=0.5;entryY=1;entryDx=0;entryDy=0;endArrow=diamondThin;endFill=0;" parent="lGwnbj7zBoOg-LtK1CzN-209" source="lGwnbj7zBoOg-LtK1CzN-214" target="lGwnbj7zBoOg-LtK1CzN-211" edge="1"><mxGeometry relative="1" as="geometry"/></mxCell><mxCell id="lGwnbj7zBoOg-LtK1CzN-214" value="C" style="ellipse;whiteSpace=wrap;html=1;aspect=fixed;fontSize=16;" parent="lGwnbj7zBoOg-LtK1CzN-209" vertex="1"><mxGeometry x="98" y="160" width="34" height="34" as="geometry"/></mxCell><mxCell id="lGwnbj7zBoOg-LtK1CzN-215" style="edgeStyle=orthogonalEdgeStyle;rounded=0;orthogonalLoop=1;jettySize=auto;html=1;exitX=0.5;exitY=1;exitDx=0;exitDy=0;entryX=0.5;entryY=0;entryDx=0;entryDy=0;endArrow=none;endFill=0;startArrow=diamondThin;startFill=0;" parent="1" source="lGwnbj7zBoOg-LtK1CzN-122" target="lGwnbj7zBoOg-LtK1CzN-183" edge="1"><mxGeometry relative="1" as="geometry"><Array as="points"><mxPoint x="815.5" y="1460"/><mxPoint x="694.5" y="1460"/></Array></mxGeometry></mxCell><mxCell id="lGwnbj7zBoOg-LtK1CzN-216" style="edgeStyle=orthogonalEdgeStyle;rounded=0;orthogonalLoop=1;jettySize=auto;html=1;exitX=0.5;exitY=1;exitDx=0;exitDy=0;entryX=0.5;entryY=0;entryDx=0;entryDy=0;endArrow=none;endFill=0;startArrow=diamondThin;startFill=0;" parent="1" source="lGwnbj7zBoOg-LtK1CzN-122" target="lGwnbj7zBoOg-LtK1CzN-188" edge="1"><mxGeometry relative="1" as="geometry"><Array as="points"><mxPoint x="815.5" y="1460"/><mxPoint x="827.5" y="1460"/><mxPoint x="827.5" y="1489"/></Array></mxGeometry></mxCell><mxCell id="lGwnbj7zBoOg-LtK1CzN-217" value="contains" style="edgeStyle=orthogonalEdgeStyle;rounded=0;orthogonalLoop=1;jettySize=auto;html=1;exitX=0.5;exitY=1;exitDx=0;exitDy=0;entryX=0.5;entryY=0;entryDx=0;entryDy=0;endArrow=none;endFill=0;startArrow=diamondThin;startFill=0;" parent="1" source="lGwnbj7zBoOg-LtK1CzN-122" edge="1"><mxGeometry x="-0.7547" relative="1" as="geometry"><Array as="points"><mxPoint x="815.5" y="1460"/><mxPoint x="996.5" y="1460"/></Array><mxPoint as="offset"/><mxPoint x="996" y="1545" as="targetPoint"/></mxGeometry></mxCell><mxCell id="lGwnbj7zBoOg-LtK1CzN-218" value="ProductCancellation" style="swimlane;fontStyle=0;childLayout=stackLayout;horizontal=1;startSize=26;fillColor=none;horizontalStack=0;resizeParent=1;resizeParentMax=0;resizeLast=0;collapsible=1;marginBottom=0;whiteSpace=wrap;html=1;" parent="1" vertex="1"><mxGeometry x="556.5" y="384" width="140" height="78" as="geometry"/></mxCell><mxCell id="lGwnbj7zBoOg-LtK1CzN-219" value="productId: 12-15" style="text;strokeColor=none;fillColor=none;align=left;verticalAlign=top;spacingLeft=4;spacingRight=4;overflow=hidden;rotatable=0;points=[[0,0.5],[1,0.5]];portConstraint=eastwest;whiteSpace=wrap;html=1;" parent="lGwnbj7zBoOg-LtK1CzN-218" vertex="1"><mxGeometry y="26" width="140" height="26" as="geometry"/></mxCell><mxCell id="lGwnbj7zBoOg-LtK1CzN-220" value="employeeId: 121314156" style="text;strokeColor=none;fillColor=none;align=left;verticalAlign=top;spacingLeft=4;spacingRight=4;overflow=hidden;rotatable=0;points=[[0,0.5],[1,0.5]];portConstraint=eastwest;whiteSpace=wrap;html=1;" parent="lGwnbj7zBoOg-LtK1CzN-218" vertex="1"><mxGeometry y="52" width="140" height="26" as="geometry"/></mxCell><mxCell id="lGwnbj7zBoOg-LtK1CzN-223" value="Shift" style="swimlane;fontStyle=0;childLayout=stackLayout;horizontal=1;startSize=26;fillColor=none;horizontalStack=0;resizeParent=1;resizeParentMax=0;resizeLast=0;collapsible=1;marginBottom=0;whiteSpace=wrap;html=1;" parent="1" vertex="1"><mxGeometry x="557.5" y="478" width="110" height="78" as="geometry"/></mxCell><mxCell id="lGwnbj7zBoOg-LtK1CzN-224" value="id: 150" style="text;strokeColor=none;fillColor=none;align=left;verticalAlign=top;spacingLeft=4;spacingRight=4;overflow=hidden;rotatable=0;points=[[0,0.5],[1,0.5]];portConstraint=eastwest;whiteSpace=wrap;html=1;" parent="lGwnbj7zBoOg-LtK1CzN-223" vertex="1"><mxGeometry y="26" width="110" height="26" as="geometry"/></mxCell><mxCell id="lGwnbj7zBoOg-LtK1CzN-225" value="date: 31/12/2022" style="text;strokeColor=none;fillColor=none;align=left;verticalAlign=top;spacingLeft=4;spacingRight=4;overflow=hidden;rotatable=0;points=[[0,0.5],[1,0.5]];portConstraint=eastwest;whiteSpace=wrap;html=1;" parent="lGwnbj7zBoOg-LtK1CzN-223" vertex="1"><mxGeometry y="52" width="110" height="26" as="geometry"/></mxCell><mxCell id="lGwnbj7zBoOg-LtK1CzN-241" style="edgeStyle=orthogonalEdgeStyle;rounded=0;orthogonalLoop=1;jettySize=auto;html=1;exitX=0.5;exitY=0;exitDx=0;exitDy=0;entryX=0.5;entryY=1;entryDx=0;entryDy=0;endArrow=block;endFill=0;" parent="1" source="lGwnbj7zBoOg-LtK1CzN-226" target="lGwnbj7zBoOg-LtK1CzN-233" edge="1"><mxGeometry relative="1" as="geometry"/></mxCell><mxCell id="lGwnbj7zBoOg-LtK1CzN-257" value="has" style="edgeStyle=orthogonalEdgeStyle;rounded=0;orthogonalLoop=1;jettySize=auto;html=1;" parent="1" edge="1"><mxGeometry relative="1" as="geometry"><mxPoint x="654.4827586206898" y="872" as="sourcePoint"/><mxPoint x="661.0344827586209" y="910" as="targetPoint"/></mxGeometry></mxCell><mxCell id="lGwnbj7zBoOg-LtK1CzN-226" value="DriverShift" style="swimlane;fontStyle=0;childLayout=stackLayout;horizontal=1;startSize=26;fillColor=none;horizontalStack=0;resizeParent=1;resizeParentMax=0;resizeLast=0;collapsible=1;marginBottom=0;whiteSpace=wrap;html=1;" parent="1" vertex="1"><mxGeometry x="599.5" y="820" width="110" height="52" as="geometry"/></mxCell><mxCell id="lGwnbj7zBoOg-LtK1CzN-227" value="driversCount: 1" style="text;strokeColor=none;fillColor=none;align=left;verticalAlign=top;spacingLeft=4;spacingRight=4;overflow=hidden;rotatable=0;points=[[0,0.5],[1,0.5]];portConstraint=eastwest;whiteSpace=wrap;html=1;" parent="lGwnbj7zBoOg-LtK1CzN-226" vertex="1"><mxGeometry y="26" width="110" height="26" as="geometry"/></mxCell><mxCell id="lGwnbj7zBoOg-LtK1CzN-232" style="edgeStyle=orthogonalEdgeStyle;rounded=0;orthogonalLoop=1;jettySize=auto;html=1;exitX=0.5;exitY=0;exitDx=0;exitDy=0;entryX=0.503;entryY=0.964;entryDx=0;entryDy=0;entryPerimeter=0;endArrow=block;endFill=0;" parent="1" source="lGwnbj7zBoOg-LtK1CzN-229" target="lGwnbj7zBoOg-LtK1CzN-225" edge="1"><mxGeometry relative="1" as="geometry"/></mxCell><mxCell id="lGwnbj7zBoOg-LtK1CzN-229" value="BranchShift" style="swimlane;fontStyle=0;childLayout=stackLayout;horizontal=1;startSize=26;fillColor=none;horizontalStack=0;resizeParent=1;resizeParentMax=0;resizeLast=0;collapsible=1;marginBottom=0;whiteSpace=wrap;html=1;" parent="1" vertex="1"><mxGeometry x="557.5" y="590" width="110" height="78" as="geometry"/></mxCell><mxCell id="lGwnbj7zBoOg-LtK1CzN-230" value="branch: Ariel" style="text;strokeColor=none;fillColor=none;align=left;verticalAlign=top;spacingLeft=4;spacingRight=4;overflow=hidden;rotatable=0;points=[[0,0.5],[1,0.5]];portConstraint=eastwest;whiteSpace=wrap;html=1;" parent="lGwnbj7zBoOg-LtK1CzN-229" vertex="1"><mxGeometry y="26" width="110" height="26" as="geometry"/></mxCell><mxCell id="lGwnbj7zBoOg-LtK1CzN-231" value="typeBS: E" style="text;strokeColor=none;fillColor=none;align=left;verticalAlign=top;spacingLeft=4;spacingRight=4;overflow=hidden;rotatable=0;points=[[0,0.5],[1,0.5]];portConstraint=eastwest;whiteSpace=wrap;html=1;" parent="lGwnbj7zBoOg-LtK1CzN-229" vertex="1"><mxGeometry y="52" width="110" height="26" as="geometry"/></mxCell><mxCell id="lGwnbj7zBoOg-LtK1CzN-233" value="Shift" style="swimlane;fontStyle=0;childLayout=stackLayout;horizontal=1;startSize=26;fillColor=none;horizontalStack=0;resizeParent=1;resizeParentMax=0;resizeLast=0;collapsible=1;marginBottom=0;whiteSpace=wrap;html=1;" parent="1" vertex="1"><mxGeometry x="599.5" y="708" width="110" height="78" as="geometry"/></mxCell><mxCell id="lGwnbj7zBoOg-LtK1CzN-234" value="id: 152" style="text;strokeColor=none;fillColor=none;align=left;verticalAlign=top;spacingLeft=4;spacingRight=4;overflow=hidden;rotatable=0;points=[[0,0.5],[1,0.5]];portConstraint=eastwest;whiteSpace=wrap;html=1;" parent="lGwnbj7zBoOg-LtK1CzN-233" vertex="1"><mxGeometry y="26" width="110" height="26" as="geometry"/></mxCell><mxCell id="lGwnbj7zBoOg-LtK1CzN-235" value="date: 31/12/2022" style="text;strokeColor=none;fillColor=none;align=left;verticalAlign=top;spacingLeft=4;spacingRight=4;overflow=hidden;rotatable=0;points=[[0,0.5],[1,0.5]];portConstraint=eastwest;whiteSpace=wrap;html=1;" parent="lGwnbj7zBoOg-LtK1CzN-233" vertex="1"><mxGeometry y="52" width="110" height="26" as="geometry"/></mxCell><mxCell id="lGwnbj7zBoOg-LtK1CzN-237" value="has" style="edgeStyle=orthogonalEdgeStyle;rounded=0;orthogonalLoop=1;jettySize=auto;html=1;exitX=1;exitY=0.5;exitDx=0;exitDy=0;entryX=0.661;entryY=1.001;entryDx=0;entryDy=0;entryPerimeter=0;endArrow=none;endFill=0;" parent="1" source="lGwnbj7zBoOg-LtK1CzN-30" target="lGwnbj7zBoOg-LtK1CzN-82" edge="1"><mxGeometry x="-0.3636" relative="1" as="geometry"><mxPoint as="offset"/></mxGeometry></mxCell><mxCell id="lGwnbj7zBoOg-LtK1CzN-238" value="has" style="edgeStyle=orthogonalEdgeStyle;rounded=0;orthogonalLoop=1;jettySize=auto;html=1;exitX=0;exitY=0.5;exitDx=0;exitDy=0;entryX=0.762;entryY=1.028;entryDx=0;entryDy=0;entryPerimeter=0;endArrow=none;endFill=0;" parent="1" source="lGwnbj7zBoOg-LtK1CzN-230" target="lGwnbj7zBoOg-LtK1CzN-82" edge="1"><mxGeometry x="-0.1536" relative="1" as="geometry"><mxPoint as="offset"/></mxGeometry></mxCell><mxCell id="lGwnbj7zBoOg-LtK1CzN-239" value="belongs to" style="edgeStyle=orthogonalEdgeStyle;rounded=0;orthogonalLoop=1;jettySize=auto;html=1;exitX=1;exitY=0.5;exitDx=0;exitDy=0;entryX=0;entryY=0.25;entryDx=0;entryDy=0;" parent="1" source="lGwnbj7zBoOg-LtK1CzN-219" target="lGwnbj7zBoOg-LtK1CzN-99" edge="1"><mxGeometry relative="1" as="geometry"/></mxCell><mxCell id="lGwnbj7zBoOg-LtK1CzN-242" value="Employee" style="swimlane;fontStyle=0;childLayout=stackLayout;horizontal=1;startSize=26;fillColor=none;horizontalStack=0;resizeParent=1;resizeParentMax=0;resizeLast=0;collapsible=1;marginBottom=0;whiteSpace=wrap;html=1;" parent="1" vertex="1"><mxGeometry x="566" y="910" width="190" height="364" as="geometry"/></mxCell><mxCell id="lGwnbj7zBoOg-LtK1CzN-243" value="employee: 483546378" style="text;strokeColor=none;fillColor=none;align=left;verticalAlign=top;spacingLeft=4;spacingRight=4;overflow=hidden;rotatable=0;points=[[0,0.5],[1,0.5]];portConstraint=eastwest;whiteSpace=wrap;html=1;" parent="lGwnbj7zBoOg-LtK1CzN-242" vertex="1"><mxGeometry y="26" width="190" height="26" as="geometry"/></mxCell><mxCell id="lGwnbj7zBoOg-LtK1CzN-244" value="firstName: Itay" style="text;strokeColor=none;fillColor=none;align=left;verticalAlign=top;spacingLeft=4;spacingRight=4;overflow=hidden;rotatable=0;points=[[0,0.5],[1,0.5]];portConstraint=eastwest;whiteSpace=wrap;html=1;" parent="lGwnbj7zBoOg-LtK1CzN-242" vertex="1"><mxGeometry y="52" width="190" height="26" as="geometry"/></mxCell><mxCell id="lGwnbj7zBoOg-LtK1CzN-245" value="lastName: Levi" style="text;strokeColor=none;fillColor=none;align=left;verticalAlign=top;spacingLeft=4;spacingRight=4;overflow=hidden;rotatable=0;points=[[0,0.5],[1,0.5]];portConstraint=eastwest;whiteSpace=wrap;html=1;" parent="lGwnbj7zBoOg-LtK1CzN-242" vertex="1"><mxGeometry y="78" width="190" height="26" as="geometry"/></mxCell><mxCell id="lGwnbj7zBoOg-LtK1CzN-246" value="password: Ts748394" style="text;strokeColor=none;fillColor=none;align=left;verticalAlign=top;spacingLeft=4;spacingRight=4;overflow=hidden;rotatable=0;points=[[0,0.5],[1,0.5]];portConstraint=eastwest;whiteSpace=wrap;html=1;" parent="lGwnbj7zBoOg-LtK1CzN-242" vertex="1"><mxGeometry y="104" width="190" height="26" as="geometry"/></mxCell><mxCell id="lGwnbj7zBoOg-LtK1CzN-247" value="accountNumber: 8352649" style="text;strokeColor=none;fillColor=none;align=left;verticalAlign=top;spacingLeft=4;spacingRight=4;overflow=hidden;rotatable=0;points=[[0,0.5],[1,0.5]];portConstraint=eastwest;whiteSpace=wrap;html=1;" parent="lGwnbj7zBoOg-LtK1CzN-242" vertex="1"><mxGeometry y="130" width="190" height="26" as="geometry"/></mxCell><mxCell id="lGwnbj7zBoOg-LtK1CzN-248" value="branchBankNumber: 52" style="text;strokeColor=none;fillColor=none;align=left;verticalAlign=top;spacingLeft=4;spacingRight=4;overflow=hidden;rotatable=0;points=[[0,0.5],[1,0.5]];portConstraint=eastwest;whiteSpace=wrap;html=1;" parent="lGwnbj7zBoOg-LtK1CzN-242" vertex="1"><mxGeometry y="156" width="190" height="26" as="geometry"/></mxCell><mxCell id="lGwnbj7zBoOg-LtK1CzN-249" value="salary: 30" style="text;strokeColor=none;fillColor=none;align=left;verticalAlign=top;spacingLeft=4;spacingRight=4;overflow=hidden;rotatable=0;points=[[0,0.5],[1,0.5]];portConstraint=eastwest;whiteSpace=wrap;html=1;" parent="lGwnbj7zBoOg-LtK1CzN-242" vertex="1"><mxGeometry y="182" width="190" height="26" as="geometry"/></mxCell><mxCell id="lGwnbj7zBoOg-LtK1CzN-250" value="termsOfEmployment: &quot;...&quot;" style="text;strokeColor=none;fillColor=none;align=left;verticalAlign=top;spacingLeft=4;spacingRight=4;overflow=hidden;rotatable=0;points=[[0,0.5],[1,0.5]];portConstraint=eastwest;whiteSpace=wrap;html=1;" parent="lGwnbj7zBoOg-LtK1CzN-242" vertex="1"><mxGeometry y="208" width="190" height="26" as="geometry"/></mxCell><mxCell id="lGwnbj7zBoOg-LtK1CzN-251" value="statusOfEmployee: single" style="text;strokeColor=none;fillColor=none;align=left;verticalAlign=top;spacingLeft=4;spacingRight=4;overflow=hidden;rotatable=0;points=[[0,0.5],[1,0.5]];portConstraint=eastwest;whiteSpace=wrap;html=1;" parent="lGwnbj7zBoOg-LtK1CzN-242" vertex="1"><mxGeometry y="234" width="190" height="26" as="geometry"/></mxCell><mxCell id="lGwnbj7zBoOg-LtK1CzN-252" value="phoneNumber: 0546677221" style="text;strokeColor=none;fillColor=none;align=left;verticalAlign=top;spacingLeft=4;spacingRight=4;overflow=hidden;rotatable=0;points=[[0,0.5],[1,0.5]];portConstraint=eastwest;whiteSpace=wrap;html=1;" parent="lGwnbj7zBoOg-LtK1CzN-242" vertex="1"><mxGeometry y="260" width="190" height="26" as="geometry"/></mxCell><mxCell id="lGwnbj7zBoOg-LtK1CzN-253" value="RoleType: DRIVER" style="text;strokeColor=none;fillColor=none;align=left;verticalAlign=top;spacingLeft=4;spacingRight=4;overflow=hidden;rotatable=0;points=[[0,0.5],[1,0.5]];portConstraint=eastwest;whiteSpace=wrap;html=1;" parent="lGwnbj7zBoOg-LtK1CzN-242" vertex="1"><mxGeometry y="286" width="190" height="26" as="geometry"/></mxCell><mxCell id="lGwnbj7zBoOg-LtK1CzN-254" value="hireDate: 07/07/2022" style="text;strokeColor=none;fillColor=none;align=left;verticalAlign=top;spacingLeft=4;spacingRight=4;overflow=hidden;rotatable=0;points=[[0,0.5],[1,0.5]];portConstraint=eastwest;whiteSpace=wrap;html=1;" parent="lGwnbj7zBoOg-LtK1CzN-242" vertex="1"><mxGeometry y="312" width="190" height="26" as="geometry"/></mxCell><mxCell id="lGwnbj7zBoOg-LtK1CzN-255" value="isLogged: false" style="text;strokeColor=none;fillColor=none;align=left;verticalAlign=top;spacingLeft=4;spacingRight=4;overflow=hidden;rotatable=0;points=[[0,0.5],[1,0.5]];portConstraint=eastwest;whiteSpace=wrap;html=1;" parent="lGwnbj7zBoOg-LtK1CzN-242" vertex="1"><mxGeometry y="338" width="190" height="26" as="geometry"/></mxCell><mxCell id="DhEKTL-dvTbSW7irkogK-3" style="rounded=0;orthogonalLoop=1;jettySize=auto;html=1;endArrow=block;endFill=0;entryX=1;entryY=0.154;entryDx=0;entryDy=0;entryPerimeter=0;" parent="1" source="DhEKTL-dvTbSW7irkogK-4" target="lGwnbj7zBoOg-LtK1CzN-248" edge="1"><mxGeometry relative="1" as="geometry"><mxPoint x="760" y="1060" as="targetPoint"/></mxGeometry></mxCell><mxCell id="DhEKTL-dvTbSW7irkogK-4" value="Driver" style="swimlane;fontStyle=0;childLayout=stackLayout;horizontal=1;startSize=26;fillColor=none;horizontalStack=0;resizeParent=1;resizeParentMax=0;resizeLast=0;collapsible=1;marginBottom=0;whiteSpace=wrap;html=1;" parent="1" vertex="1"><mxGeometry x="816" y="1018" width="110" height="104" as="geometry"/></mxCell><mxCell id="DhEKTL-dvTbSW7irkogK-5" value="licenses: 30000" style="text;strokeColor=none;fillColor=none;align=left;verticalAlign=top;spacingLeft=4;spacingRight=4;overflow=hidden;rotatable=0;points=[[0,0.5],[1,0.5]];portConstraint=eastwest;whiteSpace=wrap;html=1;" parent="DhEKTL-dvTbSW7irkogK-4" vertex="1"><mxGeometry y="26" width="110" height="26" as="geometry"/></mxCell><mxCell id="DhEKTL-dvTbSW7irkogK-6" value="deliveryDates: []" style="text;strokeColor=none;fillColor=none;align=left;verticalAlign=top;spacingLeft=4;spacingRight=4;overflow=hidden;rotatable=0;points=[[0,0.5],[1,0.5]];portConstraint=eastwest;whiteSpace=wrap;html=1;" parent="DhEKTL-dvTbSW7irkogK-4" vertex="1"><mxGeometry y="52" width="110" height="26" as="geometry"/></mxCell><mxCell id="DhEKTL-dvTbSW7irkogK-7" value="qualifications: []" style="text;strokeColor=none;fillColor=none;align=left;verticalAlign=top;spacingLeft=4;spacingRight=4;overflow=hidden;rotatable=0;points=[[0,0.5],[1,0.5]];portConstraint=eastwest;whiteSpace=wrap;html=1;" parent="DhEKTL-dvTbSW7irkogK-4" vertex="1"><mxGeometry y="78" width="110" height="26" as="geometry"/></mxCell></root></mxGraphModel></diagram></mxfile>